<svg xmlns="http://www.w3.org/2000/svg" width="1367.502" height="398.74" viewBox="0 0 1367.502 398.74"><defs><style>.a{mix-blend-mode:multiply;isolation:isolate;}.b{fill:#f6d661;}.c{fill:#edbf59;}.d{fill:#a87f7f;}.e{fill:#d0aaaa;}.f{fill:#976f6f;}.g{fill:#846363;}.h{fill:#704e4e;}.i{fill:#472e2e;}.j{fill:#5d4040;}.k{fill:#392323;}</style></defs><g class="a" transform="translate(0 -16)"><path class="b" d="M231.525,115.763A115.763,115.763,0,1,1,115.763,0,115.763,115.763,0,0,1,231.525,115.763Z" transform="translate(595 179.711) rotate(-45)"/><path class="c" d="M167.719,83.86A83.86,83.86,0,1,1,83.859,0,83.86,83.86,0,0,1,167.719,83.86Z" transform="translate(642.396 184.269) rotate(-45)"/><path class="d" d="M1048.472,219.562c-20.509-4.558-243.831-84.315-243.831-84.315S656.52,69.162,624.617,46.374,533.465,5.356,506.12.8,385.344,12.192,348.883,23.586s-120.776,56.97-180.025,82.036C124.878,124.081,40.335,149.147,0,160.769v72.238L622.338,287.7C622.338,287.926,1068.981,224.12,1048.472,219.562Z" transform="translate(0 103.123)"/><path class="e" d="M240.02,122.836c37.6,10.482,69.047,41.474,108.015,42.841a76.188,76.188,0,0,0,33.954-6.836,6.822,6.822,0,0,0,1.823-.911c-36.689-12.989-64.034-22.788-64.034-22.788S171.656,69.057,139.753,46.269,48.6,5.25,21.256.693A112.67,112.67,0,0,0,.975.237,17.042,17.042,0,0,0,1.43,12.77C5.076,21.658,15.1,25.987,24.218,29.406,37.435,34.419,50.88,39.432,64.781,42.623c29.624,6.608,64.49,5.7,84.315,28.485a10.9,10.9,0,0,1,2.279,3.874c2.051,8.659-15.724,8.2-18.23,16.863-1.367,5.013,3.418,9.571,7.748,12.078C170.289,120.329,207.205,113.721,240.02,122.836Z" transform="translate(485.319 103)"/><path class="f" d="M776.612,229.93c19.6-16.179,33.27-41.246,30.08-66.541q-91.607,12.647-184.354,16.863c-27.573,1.139-57.2,1.367-79.758-14.129-10.027-6.836-18-16.179-28.029-22.788-33.27-21.876-77.707-7.748-117.358-12.305a121.461,121.461,0,0,1-74.516-37.372c-3.19-3.418-6.381-7.292-7.064-11.85-.684-5.013,1.367-9.8,3.874-14.129C335.21,38.056,361.416,14.129,391.952,0c-17.091,3.418-32.359,7.064-43.069,10.482-36.461,11.394-120.776,56.97-180.025,82.036C124.878,110.977,40.335,136.044,0,147.666V219.9l622.338,54.691s33.954-4.785,82.948-12.078c.911-.228,2.051-.456,2.962-.684C732.631,255.225,757.242,246.337,776.612,229.93Z" transform="translate(0 116.226)"/><path class="d" d="M784.36,124.143C716.908,95.43,556.709,18.407,556.709,18.407S504.3-2.1,474.672.177s-29.624,11.166-61.527,25.067C383.065,38.46,25.295,180.2,0,187.038l253.629,9.115,530.73,39.423Z" transform="translate(582.915 103)"/><path class="e" d="M12.223.177C9.944.4,7.665.633,5.614.86a26.843,26.843,0,0,0-4.33,5.7c-.912,1.823-1.6,3.874-1.139,5.7.912,4.1,5.925,5.469,10.027,5.925,32.359,4.33,66.541,4.33,95.709,19.37,8.659,4.558,18,13.673,14.128,22.788-5.469-3.874-12.533,4.558-10.482,10.71,2.279,6.153,9.115,9.115,15.5,11.166,29.624,8.887,61.3,8.2,91.607,14.584,7.52,1.6,15.04,3.646,21.421,8.2,3.874,2.735,6.836,6.381,10.71,9.115,13.445,10.255,31.9,9.343,48.082,14.356,8.887,2.735,16.863,7.292,25.295,11.166v-15.5C254.686,95.43,94.487,18.407,94.487,18.407S41.847-2.1,12.223.177Z" transform="translate(1045.364 103.228)"/><path class="f" d="M578.585,84.543c-17.775-2.507-36.233,1.823-53.324-3.418-22.332-6.608-37.372-27.8-59.021-36.689C419.3,25.295,363.7,70.643,317.436,50.361c-4.1-1.823-8.2-4.33-10.027-8.432s-.911-8.887.456-13.217A72.059,72.059,0,0,1,324.728,0C208.054,46.487,18,121,0,126.017l253.629,9.115L661.989,165.44c25.522-10.71,50.361-23.016,72.466-39.651a326.652,326.652,0,0,1-110.977-25.295C608.665,94.114,594.309,86.822,578.585,84.543Z" transform="translate(583.143 164.02)"/><path class="g" d="M1352.463,95.511V92.776c.228-5.013,0-10.027-.228-15.04-.228-2.507-4.1-2.735-4.1,0-.228,4.33-.456,8.659-.911,13.217l-.684,4.1c-2.507-.228-5.013-.456-7.748-.456-.228-1.6-.228-2.962-.456-4.1-.228-1.6-2.507-1.6-2.507,0,0,1.367-.228,2.735-.228,3.874a7.753,7.753,0,0,1-2.279-.228,148.99,148.99,0,0,1-28.485-4.558,92.424,92.424,0,0,0,.228-20.965c-.228-.912-1.6-1.367-1.823-.228-.911,5.7-1.367,11.622-2.735,17.319-.228.912-.456,1.6-.684,2.507-1.823-.456-3.646-1.139-5.469-1.6a37.279,37.279,0,0,1,.456-5.013c.228-2.051-2.962-2.051-3.19,0-.228,1.139-.456,2.735-.684,4.1-18-5.7-36.005-12.761-62.439-16.635-6.609-.912-12.533-1.823-18-2.507,0-1.367-.228-2.735-.228-4.1-.456-6.153-.683-12.078-1.595-18.23-.228-1.367-2.051-1.367-2.051,0-.228,6.153-.456,12.078-.684,18.23,0,1.139-.228,2.279-.228,3.418-3.418-.456-6.609-.684-9.8-.912A46.11,46.11,0,0,0,1195,59.05c-.228-1.6-2.962-1.139-2.734.456a40.221,40.221,0,0,1,0,5.241c-22.332-1.6-41.018-1.139-79.986-2.735a145.768,145.768,0,0,1-28.941-3.646,36.807,36.807,0,0,0-.456-7.064,1.37,1.37,0,0,0-2.735,0c-.228,1.823-.456,3.874-.684,5.7v.456a61.9,61.9,0,0,1-7.748-2.507c.456-7.292-.228-14.812-.911-22.1a1.709,1.709,0,1,0-3.418,0c0,6.153,0,12.078-.456,18.23,0,.684-.228,1.139-.228,1.823-14.584-6.608-22.332-14.584-45.348-15.724-22.1-1.367-41.93,3.418-62.211,7.976a2.1,2.1,0,0,0-3.646.912c-13.9,3.19-28.257,6.153-43.525,7.064a184.388,184.388,0,0,0-28.941,4.1c-.228-1.823-.684-3.418-.911-5.013-.684-3.874-1.139-7.748-2.051-11.622-.228-1.367-2.507-1.139-2.279.228.456,3.874.684,7.748.911,11.622.228,1.823.228,3.646.456,5.469a61.088,61.088,0,0,0-6.153,1.6,13.335,13.335,0,0,1-.456-2.962A1.733,1.733,0,0,0,870.5,55.4a1.63,1.63,0,0,0-1.139,2.051c.228.912.228,2.051.456,2.962-20.281,5.7-41.93,13.9-75.884,22.1a37.024,37.024,0,0,1-4.33.912,35.381,35.381,0,0,1-.684-7.064,1.367,1.367,0,0,0-2.735,0,28.979,28.979,0,0,0,.456,7.748c-1.823.456-3.646.684-5.469,1.139a41.782,41.782,0,0,1,1.6-19.6c.456-1.6-1.823-2.051-2.507-.684A57.062,57.062,0,0,0,776.84,85.94c-40.335,7.064-68.819,2.279-108.7-3.19l.684-4.1c.228-2.279-3.19-2.051-3.418,0-.228,1.139-.456,2.507-.684,3.646-5.241-.684-10.71-1.367-16.635-2.051-33.27-4.1-61.983-5.013-90.924-8.2,0-7.292-2.962-16.407-3.19-21.421a.913.913,0,0,0-1.823,0c0,4.785.684,9.571.912,14.356a34.273,34.273,0,0,1,0,6.836c-2.051-.228-4.33-.456-6.609-.912a56.438,56.438,0,0,0-.684-6.153c-.228-1.6-2.507-.912-2.279.684a18.449,18.449,0,0,1,0,5.013A347.252,347.252,0,0,1,492.9,59.734c-54.691-15.952-72.921-9.115-118.5-11.394a8.544,8.544,0,0,1-2.507-.228V47.2a1.938,1.938,0,0,0-3.874,0v.912c-2.051,0-4.33-.228-6.381-.228V45.605c-.228-4.558-.456-9.115-.911-13.445-.228-1.6-2.507-1.6-2.507,0a129.5,129.5,0,0,1-.684,13.445c0,.684-.228,1.367-.228,2.051-1.6,0-3.418-.228-5.013-.228a27.422,27.422,0,0,0,0-4.33c0-1.367-1.823-1.367-2.051,0a16.914,16.914,0,0,1-.911,4.1c-43.069-2.051-95.481-5.013-127.612-12.533A236.782,236.782,0,0,0,182.987,29.2a58.61,58.61,0,0,0-1.823-8.659c-.456-2.279-4.1-1.367-3.646.912.456,2.507.911,5.013,1.6,7.52-3.418-.228-6.608-.228-10.027-.228-.456-2.507-.912-5.013-1.139-7.52-.456-6.608-.456-12.989-.684-19.6,0-2.279-2.962-2.051-3.19,0-.912,7.748-2.279,18-1.6,27.118h-6.609A27.038,27.038,0,0,0,154.73,18.26c-.456-1.823-2.962-.912-2.735.684.684,3.19.684,6.608,1.139,9.8a326.745,326.745,0,0,0-49.906,5.7c-14.584,2.962-39.651,1.367-63.578-1.6-.228-2.507-.912-5.013-1.139-7.52-.228-1.823-2.962-2.051-2.962,0-.228,2.279,0,4.785,0,7.064-1.6-.228-2.962-.456-4.558-.684-.228-5.925,0-11.85.228-17.775a1.025,1.025,0,1,0-2.051,0c-.684,5.469-1.823,11.394-2.279,17.319C16.863,30.338,7.748,28.97,0,27.6v229.93H1367.275V96.878C1362.489,96.422,1357.476,95.967,1352.463,95.511Z" transform="translate(0 157.207)"/><path class="h" d="M890.779,5.7c-33.5,2.279-92.975,7.976-152.451,7.976-75.2,0-93.43-6.836-154.958-2.279s-118.5,11.394-170.909,0S353.213,18.23,312.194,22.788s-77.479,6.836-136.727-11.394S0,2.279,0,2.279L115.307,131.486H890.779Z" transform="translate(476.495 283.254)"/><path class="h" d="M12.989,17.775a15.169,15.169,0,0,0,8.2-2.051L6.153,39.651c2.507-.684,5.013-1.6,7.52-2.279A117.794,117.794,0,0,1,1.823,65.4l8.2-1.367A243.249,243.249,0,0,1,0,89.329a303.234,303.234,0,0,0,49.45,6.608,78.78,78.78,0,0,1-8.887-27.345A5.959,5.959,0,0,0,47.4,71.1c-4.33-11.166-8.432-22.56-12.761-33.726,2.507.684,5.013,1.139,7.52,1.823A221.083,221.083,0,0,0,30.536,15.952c2.279.456,4.785.684,7.064,1.139C33.954,11.394,30.08,5.7,26.434,0,21.876,5.7,17.547,11.622,12.989,17.775Z" transform="translate(872.549 215.574)"/><path class="h" d="M10.027,13.445a12.64,12.64,0,0,0,6.381-1.6C12.533,18,8.659,24.155,4.785,30.536c2.051-.684,3.874-1.139,5.925-1.823A89.192,89.192,0,0,1,1.367,50.589c2.051-.228,4.1-.684,6.381-.912A188.306,188.306,0,0,1,0,69.5a220.056,220.056,0,0,0,38.512,5.013,60.932,60.932,0,0,1-6.836-21.193,5.032,5.032,0,0,0,5.241,2.051C33.5,46.715,30.308,37.828,26.89,29.169c2.051.456,3.874.912,5.925,1.367-2.735-6.153-5.7-12.305-8.887-18,1.823.228,3.646.684,5.469.912C26.434,8.887,23.7,4.558,20.737,0A153.9,153.9,0,0,0,10.027,13.445Z" transform="translate(1164.234 249.983)"/><path class="h" d="M1.823,18.914a13.245,13.245,0,0,0,7.064-3.646C5.925,23.472,2.962,31.9,0,40.107c2.051-1.139,4.33-2.507,6.381-3.646A113.181,113.181,0,0,1,.911,64.49C3.418,63.578,5.7,62.667,8.2,61.755A225.184,225.184,0,0,1,4.1,87.05a267.436,267.436,0,0,0,46.715-3.874A76.327,76.327,0,0,1,37.144,59.932a6.015,6.015,0,0,0,6.836,1.139C37.828,51.5,31.675,42.158,25.522,32.587c2.507,0,4.785,0,7.292.228A205.044,205.044,0,0,0,17.547,13.9c2.279-.228,4.558-.228,6.609-.456C19.6,8.887,15.04,4.33,10.482,0,7.52,6.381,4.558,12.533,1.823,18.914Z" transform="translate(1253.107 230.842)"/><path class="h" d="M8.887,12.533a13.066,13.066,0,0,0,5.7-1.367L4.33,27.573c1.823-.456,3.418-1.139,5.241-1.6a75.835,75.835,0,0,1-8.2,19.142c1.823-.228,3.646-.684,5.469-.912C4.785,50.133,2.507,56.058,0,61.527a213.292,213.292,0,0,0,33.954,4.558A58.186,58.186,0,0,1,27.8,47.4a4.451,4.451,0,0,0,4.785,1.823L23.7,25.978a43.1,43.1,0,0,0,5.241,1.139c-2.507-5.469-5.013-10.71-7.976-15.952l4.785.684C23.244,7.976,20.737,4.1,18,0,15.04,4.33,12.078,8.432,8.887,12.533Z" transform="translate(1296.176 250.211)"/><path class="h" d="M6.609,12.761a9.821,9.821,0,0,0,5.469-1.823C8.887,16.407,5.7,22.1,2.735,27.573A44.328,44.328,0,0,1,7.748,25.75,79.045,79.045,0,0,1,.456,45.12c1.823-.456,3.646-.684,5.469-1.139A158.792,158.792,0,0,1,0,61.527a184.029,184.029,0,0,0,33.5,2.279,61.331,61.331,0,0,1-6.836-18,4.724,4.724,0,0,0,4.785,1.6c-3.19-7.52-6.381-14.812-9.571-22.332,1.6.228,3.418.684,5.013.912-2.507-5.241-5.469-10.255-8.432-15.268,1.6.228,3.19.228,4.785.456C20.509,7.52,18,3.646,15.268,0,12.306,4.33,9.571,8.659,6.609,12.761Z" transform="translate(834.721 239.273)"/><path class="h" d="M6.836,12.761a11.3,11.3,0,0,0,5.925-1.823C9.343,16.407,6.153,22.1,2.735,27.573,4.558,26.89,6.381,26.434,8.2,25.75A71.8,71.8,0,0,1,.456,45.12c2.051-.456,3.874-.684,5.925-1.139A161.443,161.443,0,0,1,0,61.527a210.986,210.986,0,0,0,36,2.507A55.644,55.644,0,0,1,28.713,45.8a5.27,5.27,0,0,0,5.013,1.6c-3.418-7.52-6.836-14.812-10.482-22.332,1.823.228,3.646.684,5.469.912C25.978,20.737,22.788,15.724,19.6,10.71c1.823.228,3.418.228,5.241.456C21.876,7.52,19.142,3.646,16.179,0,12.761,4.33,9.8,8.432,6.836,12.761Z" transform="translate(667.914 255.225)"/><path class="h" d="M.912,12.078A8.023,8.023,0,0,0,5.241,9.8C3.418,15.04,1.823,20.281,0,25.522c1.367-.684,2.735-1.6,3.874-2.279A62.878,62.878,0,0,1,.912,40.79c1.6-.684,2.962-1.139,4.558-1.823A118.763,118.763,0,0,1,3.19,54.691,178.507,178.507,0,0,0,32.359,51.5a46.156,46.156,0,0,1-8.887-14.356,3.477,3.477,0,0,0,4.33.456c-4.1-5.7-7.976-11.622-12.078-17.319h4.558c-3.19-4.1-6.381-7.976-9.8-11.622,1.367-.228,2.735-.228,4.1-.456C11.622,5.469,8.659,2.735,5.925,0,4.33,3.874,2.507,7.976.912,12.078Z" transform="translate(616.413 254.085)"/><path class="h" d="M13.9,13.445a11.219,11.219,0,0,0,6.608-1.367C16.179,18,11.85,23.927,7.52,30.08c2.051-.456,4.1-.912,5.925-1.367A99.091,99.091,0,0,1,2.735,50.133c2.051-.228,4.33-.456,6.381-.684A213.6,213.6,0,0,1,0,68.819a221.285,221.285,0,0,0,38.512,7.52,63.284,63.284,0,0,1-5.7-21.876,4.9,4.9,0,0,0,5.241,2.279c-2.735-9.115-5.469-18-8.431-27.118,2.051.684,3.874,1.139,5.925,1.823a170.5,170.5,0,0,0-7.976-18.686A46.672,46.672,0,0,0,33.042,13.9C30.308,9.343,27.8,4.558,25.067,0,21.649,4.558,17.775,9.115,13.9,13.445Z" transform="translate(1017.708 231.981)"/><path class="h" d="M12.078,19.142a14.09,14.09,0,0,0,8.432-2.507L5.469,41.93c2.507-.912,5.241-1.823,7.748-2.507a124.048,124.048,0,0,1-11.85,29.4c2.735-.456,5.7-.912,8.431-1.6A265.75,265.75,0,0,1,0,93.886a304.563,304.563,0,0,0,51.729,5.7,84.953,84.953,0,0,1-9.8-28.257,6.6,6.6,0,0,0,7.292,2.507c-4.785-11.622-9.343-23.244-14.129-34.865,2.735.456,5.241,1.139,7.976,1.6-3.874-8.2-7.976-16.179-12.533-23.927,2.507.228,5.013.684,7.292.912C33.726,11.622,29.852,5.7,25.75,0,20.965,6.608,16.635,12.761,12.078,19.142Z" transform="translate(975.323 213.523)"/><path class="h" d="M5.469,10.482a9.572,9.572,0,0,0,4.785-1.367C7.52,13.9,4.785,18.686,2.279,23.472c1.367-.456,2.962-1.139,4.33-1.6A65.88,65.88,0,0,1,.456,38.512c1.6-.228,3.19-.684,4.785-.912A106.429,106.429,0,0,1,0,52.64a177.291,177.291,0,0,0,28.941,2.507,52.21,52.21,0,0,1-5.925-15.724,3.786,3.786,0,0,0,4.1,1.367c-2.735-6.381-5.7-12.761-8.431-19.37a29.3,29.3,0,0,1,4.33.912c-2.279-4.558-4.785-8.887-7.292-13.217,1.367.228,2.735.228,4.1.456C17.547,6.381,15.268,3.19,12.761,0,10.255,3.418,7.748,7.064,5.469,10.482Z" transform="translate(1066.246 251.123)"/><path class="h" d="M5.469,10.482a9.572,9.572,0,0,0,4.785-1.367C7.52,13.9,4.785,18.686,2.279,23.472c1.367-.456,2.962-1.139,4.33-1.6A65.88,65.88,0,0,1,.456,38.512c1.6-.228,3.19-.684,4.785-.912A106.429,106.429,0,0,1,0,52.64a177.291,177.291,0,0,0,28.941,2.507,52.21,52.21,0,0,1-5.925-15.724,3.786,3.786,0,0,0,4.1,1.367c-2.735-6.381-5.7-12.761-8.431-19.37a29.3,29.3,0,0,1,4.33.912c-2.279-4.558-4.785-8.887-7.292-13.217,1.367.228,2.735.228,4.1.456C17.547,6.381,15.268,3.19,12.761,0,10.255,3.19,7.976,6.836,5.469,10.482Z" transform="translate(757.47 260.922)"/><path class="g" d="M4.33,6.836a5.232,5.232,0,0,0,3.19-.912C5.7,8.887,3.874,12.078,1.823,15.04c.912-.228,2.051-.684,2.962-.912a43.979,43.979,0,0,1-4.33,10.71c1.139-.228,2.051-.456,3.19-.684A69.056,69.056,0,0,1,0,33.726a117.118,117.118,0,0,0,20.053,1.6,30.025,30.025,0,0,1-4.1-10.027,2.615,2.615,0,0,0,2.735.912c-1.823-4.1-3.874-8.2-5.7-12.305a13.337,13.337,0,0,0,2.962.456c-1.6-2.962-3.19-5.7-5.013-8.432.912,0,1.823.228,2.962.228L9.115,0Z" transform="translate(22.332 159.288)"/><path class="g" d="M4.33,6.836a5.232,5.232,0,0,0,3.19-.912C5.7,8.887,3.874,12.078,1.823,15.04c.912-.228,2.051-.684,2.962-.912a43.979,43.979,0,0,1-4.33,10.71c1.139-.228,2.051-.456,3.19-.684A69.056,69.056,0,0,1,0,33.726a117.118,117.118,0,0,0,20.053,1.6,30.025,30.025,0,0,1-4.1-10.027,2.615,2.615,0,0,0,2.735.912c-1.823-4.1-3.874-8.2-5.7-12.305a13.337,13.337,0,0,0,2.962.456c-1.6-2.962-3.19-5.7-5.013-8.432.912,0,1.823.228,2.962.228L9.115,0Z" transform="translate(46.259 174.555)"/><path class="g" d="M4.33,6.836a5.232,5.232,0,0,0,3.19-.912C5.7,8.887,3.874,12.078,1.823,15.04c.912-.228,2.051-.684,2.962-.912a43.979,43.979,0,0,1-4.33,10.71c1.139-.228,2.051-.456,3.19-.684A69.056,69.056,0,0,1,0,33.726a117.118,117.118,0,0,0,20.053,1.6,30.025,30.025,0,0,1-4.1-10.027,2.615,2.615,0,0,0,2.735.912c-1.823-4.1-3.874-8.2-5.7-12.305a13.337,13.337,0,0,0,2.962.456c-1.6-2.962-3.19-5.7-5.013-8.432.912,0,1.823.228,2.962.228L9.115,0Z" transform="translate(144.475 161.111)"/><path class="g" d="M4.33,6.836a5.232,5.232,0,0,0,3.19-.912C5.7,8.887,3.874,12.078,1.823,15.04c.912-.228,2.051-.684,2.962-.912a43.979,43.979,0,0,1-4.33,10.71c1.139-.228,2.051-.456,3.19-.684A69.056,69.056,0,0,1,0,33.726a117.118,117.118,0,0,0,20.053,1.6,30.025,30.025,0,0,1-4.1-10.027,2.615,2.615,0,0,0,2.735.912c-1.823-4.1-3.874-8.2-5.7-12.305a13.337,13.337,0,0,0,2.962.456c-1.6-2.962-3.19-5.7-5.013-8.432.912,0,1.823.228,2.962.228L9.115,0C7.748,2.279,5.925,4.558,4.33,6.836Z" transform="translate(177.746 161.794)"/><path class="g" d="M4.33,6.836a5.232,5.232,0,0,0,3.19-.912C5.7,8.887,3.874,12.078,1.823,15.04c.912-.228,2.051-.684,2.962-.912a43.979,43.979,0,0,1-4.33,10.71c1.139-.228,2.051-.456,3.19-.684A69.056,69.056,0,0,1,0,33.726a117.118,117.118,0,0,0,20.053,1.6,30.025,30.025,0,0,1-4.1-10.027,2.615,2.615,0,0,0,2.735.912c-1.823-4.1-3.874-8.2-5.7-12.305a13.337,13.337,0,0,0,2.962.456c-1.6-2.962-3.19-5.7-5.013-8.432.912,0,1.823.228,2.962.228L9.115,0A62.2,62.2,0,0,1,4.33,6.836Z" transform="translate(345.693 174.328)"/><path class="g" d="M4.33,6.836a5.232,5.232,0,0,0,3.19-.912C5.7,8.887,3.874,12.078,1.823,15.04c.912-.228,2.051-.684,2.962-.912a43.979,43.979,0,0,1-4.33,10.71c1.139-.228,2.051-.456,3.19-.684A69.056,69.056,0,0,1,0,33.726a117.118,117.118,0,0,0,20.053,1.6,30.025,30.025,0,0,1-4.1-10.027,2.615,2.615,0,0,0,2.735.912c-1.823-4.1-3.874-8.2-5.7-12.305a13.337,13.337,0,0,0,2.962.456c-1.6-2.962-3.19-5.7-5.013-8.432.912,0,1.823.228,2.962.228L9.115,0Z" transform="translate(359.821 185.038)"/><path class="g" d="M4.33,6.836a5.232,5.232,0,0,0,3.19-.912C5.7,8.887,3.874,12.078,1.823,15.04c.912-.228,2.051-.684,2.962-.912a43.979,43.979,0,0,1-4.33,10.71c1.139-.228,2.051-.456,3.19-.684A69.056,69.056,0,0,1,0,33.726a117.118,117.118,0,0,0,20.053,1.6,30.025,30.025,0,0,1-4.1-10.027,2.615,2.615,0,0,0,2.735.912c-1.823-4.1-3.874-8.2-5.7-12.305a13.337,13.337,0,0,0,2.962.456c-1.6-2.962-3.19-5.7-5.013-8.432.912,0,1.823.228,2.962.228L9.115,0C7.52,2.051,5.925,4.558,4.33,6.836Z" transform="translate(529.591 199.166)"/><path class="g" d="M4.558,8.432a9.285,9.285,0,0,0,4.1-1.139C6.381,11.166,4.1,14.812,1.823,18.686c1.139-.456,2.507-.912,3.646-1.367A51.634,51.634,0,0,1,.228,30.536l4.1-.684A104.885,104.885,0,0,1,0,41.7a150.054,150.054,0,0,0,24.839,1.823,34.242,34.242,0,0,1-5.013-12.305,3.966,3.966,0,0,0,3.418,1.139c-2.279-5.013-4.785-10.255-7.064-15.268,1.367.228,2.507.456,3.874.684-1.823-3.646-4.1-7.064-6.153-10.482,1.139.228,2.279.228,3.418.456C15.268,5.241,13.445,2.735,11.394,0,8.887,2.735,6.836,5.469,4.558,8.432Z" transform="translate(546.91 188)"/><path class="g" d="M4.33,6.836a5.232,5.232,0,0,0,3.19-.912C5.7,8.887,3.874,12.078,1.823,15.04c.912-.228,2.051-.684,2.962-.912a43.979,43.979,0,0,1-4.33,10.71c1.139-.228,2.051-.456,3.19-.684A69.056,69.056,0,0,1,0,33.726a117.118,117.118,0,0,0,20.053,1.6,25.948,25.948,0,0,1-4.1-10.027,2.615,2.615,0,0,0,2.735.912c-1.823-4.1-3.874-8.2-5.7-12.305a13.337,13.337,0,0,0,2.962.456c-1.6-2.962-3.19-5.7-5.013-8.432.912,0,1.823.228,2.962.228L9.115,0C7.748,2.279,5.925,4.558,4.33,6.836Z" transform="translate(658.799 212.383)"/><path class="g" d="M4.33,6.836a5.232,5.232,0,0,0,3.19-.912C5.7,8.887,3.874,12.078,1.823,15.04c.912-.228,2.051-.684,2.962-.912a43.979,43.979,0,0,1-4.33,10.71c1.139-.228,2.051-.456,3.19-.684A69.056,69.056,0,0,1,0,33.726a117.118,117.118,0,0,0,20.053,1.6,25.948,25.948,0,0,1-4.1-10.027,2.615,2.615,0,0,0,2.735.912c-1.823-4.1-3.874-8.2-5.7-12.305a13.337,13.337,0,0,0,2.962.456c-1.6-2.962-3.19-5.7-5.013-8.432.912,0,1.823.228,2.962.228L9.115,0C7.748,2.279,5.925,4.558,4.33,6.836Z" transform="translate(772.738 211.7)"/><path class="g" d="M3.418,6.381a4.58,4.58,0,0,0,2.962-.912C4.785,8.2,2.962,10.938,1.367,13.9c.912-.228,1.823-.684,2.735-.912a51.567,51.567,0,0,1-3.874,9.8,13.337,13.337,0,0,1,2.962-.456C2.279,25.295,1.139,28.257,0,30.992a120.475,120.475,0,0,0,18.23,1.367,26.41,26.41,0,0,1-3.646-9.115,2.158,2.158,0,0,0,2.507.684c-1.823-3.646-3.418-7.52-5.241-11.166.912.228,1.823.228,2.735.456a86.393,86.393,0,0,0-4.558-7.748c.912,0,1.823.228,2.507.228C11.166,3.874,9.571,2.051,8.2,0,6.381,2.279,5.013,4.33,3.418,6.381Z" transform="translate(862.75 193.241)"/><path class="g" d="M3.418,6.381a4.58,4.58,0,0,0,2.962-.912C4.785,8.2,2.962,10.938,1.367,13.9c.912-.228,1.823-.684,2.735-.912a51.567,51.567,0,0,1-3.874,9.8,13.337,13.337,0,0,1,2.962-.456C2.279,25.295,1.139,28.257,0,30.992a120.475,120.475,0,0,0,18.23,1.367,26.41,26.41,0,0,1-3.646-9.115,2.158,2.158,0,0,0,2.507.684c-1.823-3.646-3.418-7.52-5.241-11.166.912.228,1.823.228,2.735.456a86.393,86.393,0,0,0-4.558-7.748c.912,0,1.823.228,2.507.228C11.166,3.874,9.571,2.051,8.2,0,6.381,2.279,5.013,4.33,3.418,6.381Z" transform="translate(950.484 184.126)"/><path class="g" d="M4.33,7.292a8.448,8.448,0,0,0,3.418-.912c-2.051,3.19-3.874,6.381-5.925,9.8,1.139-.456,2.051-.684,3.19-1.139A41.136,41.136,0,0,1,.456,26.434l3.418-.684A94.016,94.016,0,0,1,0,36a132.725,132.725,0,0,0,21.193,1.6,34.132,34.132,0,0,1-4.33-10.71,2.846,2.846,0,0,0,2.962.912L13.673,14.812a15.387,15.387,0,0,0,3.19.456,82.992,82.992,0,0,0-5.241-8.887c.912,0,2.051.228,2.962.228C12.989,4.33,11.166,2.279,9.571,0,7.976,2.279,6.153,4.785,4.33,7.292Z" transform="translate(1058.271 177.746)"/><path class="g" d="M3.19,5.469a6.068,6.068,0,0,0,2.735-.684C4.33,7.292,2.962,9.8,1.367,12.305a11.108,11.108,0,0,0,2.507-.912A30.456,30.456,0,0,1,.228,20.281a11.438,11.438,0,0,1,2.735-.456C2.051,22.56,1.139,25.067,0,27.8a79.538,79.538,0,0,0,16.407,1.139,26.085,26.085,0,0,1-3.418-8.2,2.312,2.312,0,0,0,2.279.684L10.482,11.166c.912.228,1.6.228,2.507.456-1.367-2.279-2.735-4.785-4.1-6.836.684,0,1.6.228,2.279.228C9.8,3.418,8.432,1.6,7.292,0Z" transform="translate(1077.868 192.33)"/><path class="g" d="M3.19,5.469a6.068,6.068,0,0,0,2.735-.684C4.33,7.292,2.963,9.8,1.367,12.305a11.108,11.108,0,0,0,2.507-.912A30.456,30.456,0,0,1,.228,20.281a11.438,11.438,0,0,1,2.735-.456C2.051,22.56,1.139,25.067,0,27.8a79.538,79.538,0,0,0,16.407,1.139,26.085,26.085,0,0,1-3.418-8.2,2.312,2.312,0,0,0,2.279.684L10.483,11.166c.912.228,1.6.228,2.507.456-1.367-2.279-2.735-4.785-4.1-6.836.684,0,1.6.228,2.279.228C9.8,3.418,8.432,1.6,7.292,0A56.93,56.93,0,0,0,3.19,5.469Z" transform="translate(1182.92 203.952)"/><path class="g" d="M4.33,7.976A7.565,7.565,0,0,0,7.976,6.836c-2.051,3.418-4.1,6.608-6.153,10.027,1.139-.456,2.279-.684,3.19-1.139A47.925,47.925,0,0,1,.228,27.345c1.139-.228,2.279-.456,3.646-.684C2.735,30.308,1.367,33.726,0,37.144a141.34,141.34,0,0,0,21.876,1.6A30.574,30.574,0,0,1,17.547,27.8a2.585,2.585,0,0,0,2.962.912c-2.051-4.558-4.1-9.115-6.381-13.445l3.418.684c-1.6-3.19-3.646-6.153-5.469-9.343,1.139,0,2.051.228,3.19.228C13.445,4.558,11.85,2.279,10.027,0,7.976,2.962,6.153,5.469,4.33,7.976Z" transform="translate(1200.467 185.949)"/><path class="g" d="M4.33,7.976A7.565,7.565,0,0,0,7.976,6.836c-2.051,3.418-4.1,6.608-6.153,10.027,1.139-.456,2.279-.684,3.19-1.139A47.926,47.926,0,0,1,.228,27.345c1.139-.228,2.279-.456,3.646-.684C2.735,30.308,1.367,33.726,0,37.144a141.338,141.338,0,0,0,21.876,1.6A30.574,30.574,0,0,1,17.547,27.8a2.585,2.585,0,0,0,2.962.912c-2.051-4.558-4.1-9.115-6.381-13.445l3.418.684c-1.6-3.19-3.646-6.153-5.469-9.343,1.139,0,2.051.228,3.19.228C13.445,4.558,11.85,2.279,10.027,0,7.976,2.962,6.153,5.469,4.33,7.976Z" transform="translate(1290.251 212.611)"/><path class="g" d="M3.19,5.469A4.593,4.593,0,0,0,5.7,4.785C4.33,7.292,2.735,9.571,1.367,12.078a9.523,9.523,0,0,0,2.279-.912A27.347,27.347,0,0,1,.228,19.6c.912-.228,1.6-.228,2.507-.456C1.823,21.649.912,24.383,0,26.662A91.294,91.294,0,0,0,15.724,27.8a18.99,18.99,0,0,1-3.19-7.976,2.063,2.063,0,0,0,2.279.684c-1.6-3.19-2.962-6.609-4.558-9.8.912.228,1.6.228,2.507.456A62.78,62.78,0,0,0,8.887,4.558c.684,0,1.6.228,2.279.228C9.8,3.19,8.659,1.6,7.292,0,5.7,1.823,4.558,3.646,3.19,5.469Z" transform="translate(1329.219 227.423)"/><path class="g" d="M3.646,6.381a5.232,5.232,0,0,0,3.19-.912L1.367,14.356c.912-.228,1.823-.684,2.962-.912A40.225,40.225,0,0,1,.228,23.7c1.139-.228,2.051-.456,3.19-.684A77.152,77.152,0,0,1,0,32.359a135.188,135.188,0,0,0,19.142,1.367,29.188,29.188,0,0,1-3.874-9.571A3.131,3.131,0,0,0,18,25.067c-1.823-3.874-3.646-7.976-5.469-11.85.912.228,2.051.228,2.962.456C13.9,10.938,12.306,8.2,10.71,5.7c.912,0,1.823.228,2.734.228C11.85,3.874,10.482,2.051,8.887,0A70.921,70.921,0,0,0,3.646,6.381Z" transform="translate(1343.803 222.638)"/><path class="g" d="M4.33,7.52a8.448,8.448,0,0,0,3.418-.912C5.7,9.8,3.874,13.217,1.823,16.407c1.139-.456,2.051-.684,3.19-1.139A38.506,38.506,0,0,1,.456,26.662l3.418-.684A94.016,94.016,0,0,1,0,36.233a133.58,133.58,0,0,0,21.421,1.6,29.477,29.477,0,0,1-4.33-10.71,2.985,2.985,0,0,0,2.962.912C18,23.7,15.952,19.37,13.9,14.812a17.876,17.876,0,0,0,3.19.456,58,58,0,0,0-5.469-8.887c.912,0,2.051.228,2.962.228C12.989,4.33,11.166,2.279,9.571,0,7.976,2.507,6.153,5.013,4.33,7.52Z" transform="translate(873.005 182.987)"/><path class="g" d="M5.013,8.432a8.529,8.529,0,0,0,4.1-1.139C6.836,11.166,4.33,15.04,2.051,18.914c1.367-.456,2.507-.912,3.874-1.367A46.361,46.361,0,0,1,.456,30.992l4.1-.684A109.683,109.683,0,0,1,0,42.386a135.04,135.04,0,0,0,25.295,1.823,37.111,37.111,0,0,1-5.013-12.533A3.412,3.412,0,0,0,23.7,32.815c-2.507-5.241-4.785-10.255-7.292-15.5,1.367.228,2.507.456,3.874.684-2.051-3.646-4.1-7.292-6.381-10.71,1.139.228,2.507.228,3.646.456C15.5,5.241,13.445,2.507,11.394,0,9.343,2.507,7.064,5.469,5.013,8.432Z" transform="translate(158.148 147.21)"/><path class="i" d="M973.272,153.135c-24.383-4.785-53.1-14.129-86.594-9.571-33.5,4.785-42.613-1.6-65.4-11.166s-41.018-17.319-69.959-20.509-98.672-3.19-118.5-7.976S593.4,86.594,564.457,75.428s-98.672-9.571-116.9-11.166-60.844,0-80.441-3.19c-19.825-3.19-95.709,6.381-95.709,6.381S207.6,62.667,169.542,56.286,122.371,40.562,85.91,30.992C60.844,24.839,21.649,9.115,0,0V203.04H1112.506C1060.549,183.215,988.54,156.1,973.272,153.135Z" transform="translate(0 211.7)"/><path class="i" d="M973.272,153.135c-24.383-4.785-53.1-14.129-86.594-9.571-33.5,4.785-42.613-1.6-65.4-11.166s-41.018-17.319-69.959-20.509-98.672-3.19-118.5-7.976S593.4,86.594,564.457,75.428s-98.672-9.571-116.9-11.166-60.844,0-80.441-3.19c-19.825-3.19-95.709,6.381-95.709,6.381S207.6,62.667,169.542,56.286,122.371,40.562,85.91,30.992C60.844,24.839,21.649,9.115,0,0V203.04H1112.506C1060.549,183.215,988.54,156.1,973.272,153.135Z" transform="translate(0 211.7)"/><path class="j" d="M56.97,37.828C113.484,67.224,180.025,76.8,242.691,65.4c-21.876-2.051-51.5-5.013-72.921-8.659C131.714,50.361,122.6,41.018,86.138,31.447,60.844,24.839,21.649,9.115,0,0V18.458C18.914,17.319,38.967,28.485,56.97,37.828Z" transform="translate(0 211.7)"/><path class="j" d="M508.4,87.961c-24.383-4.785-53.1-14.129-86.594-9.571-33.5,4.785-42.613-1.6-65.4-11.166s-41.018-17.319-69.959-20.509-98.672-3.19-118.5-7.976S128.524,21.421,99.583,10.255C76.8,1.6,28.257.684,0,0,42.613,13.445,85.227,26.662,127.84,40.107c25.522,7.976,51.5,16.179,78.39,17.547,28.485,1.367,57.426-4.558,85,1.823,23.016,5.469,43.3,19.37,65.629,26.89,27.8,9.343,57.881,8.887,87.278,10.255,51.729,2.507,102.546,11.166,153.135,22.1C557.62,103.913,519.109,90.012,508.4,87.961Z" transform="translate(464.873 276.873)"/><path class="j" d="M24.155,44.892C16.179,35.093,7.976,25.067,0,15.268a71.847,71.847,0,0,1,33.726,19.37A51.276,51.276,0,0,1,70.187,0,135.545,135.545,0,0,0,57.426,33.5c6.381-5.7,16.635-5.925,23.472-.912a250.626,250.626,0,0,1-32.359,18.23c-4.1,1.823-8.659,3.874-12.989,2.735C30.536,52.412,27.118,48.538,24.155,44.892Z" transform="translate(509.766 245.426)"/><path class="j" d="M23.472,15.889C32.359,4.723,49.45.849,62.439,7A88.673,88.673,0,0,0,25.295,25.915c-1.823,0-3.646.228-5.7.228A114.481,114.481,0,0,0,0,.165C10.255-1.2,20.965,6.09,23.472,15.889Z" transform="translate(736.505 306.104)"/><path class="j" d="M23.472,15.889C32.359,4.723,49.45.849,62.439,7A88.673,88.673,0,0,0,25.295,25.915c-1.823,0-3.646.228-5.7.228A114.481,114.481,0,0,0,0,.165C10.255-1.2,20.965,6.09,23.472,15.889Z" transform="translate(124.65 245.716)"/><path class="j" d="M.174,8.887A29.193,29.193,0,0,1,16.582,24.155C20.911,11.394,32.989,1.823,46.206,0a80.878,80.878,0,0,1-19.37,26.206,24.464,24.464,0,0,1,18.686-3.19C38.458,29.624,29.571,34.866,20,33.954,8.15,32.587-1.421,20.509.174,8.887Z" transform="translate(968.084 340.451)"/><path class="k" d="M576.762,84.543C439.123,75.428,300.345,81.125,163.389,63.35c-25.067-3.19-50.589-7.52-73.6-18.23C59.7,30.764,31.447,4.785,0,0V117.358H824.239A1881.553,1881.553,0,0,0,576.762,84.543Z" transform="translate(0 297.382)"/><path class="j" d="M0,10.027a66.557,66.557,0,0,1,13.9,8.432A20.437,20.437,0,0,1,21.193,0c.456,6.608,1.139,13.217,1.6,19.825a26.107,26.107,0,0,1,11.85-5.7c.456,1.139-.228,2.279-.912,3.19-3.646,5.7-8.2,12.078-15.04,12.533a13.216,13.216,0,0,1-8.2-2.279A21.643,21.643,0,0,1,0,10.027Z" transform="translate(40.335 273.455)"/><path class="j" d="M6.153,35.777A48.227,48.227,0,0,1,0,24.611c6.153-1.6,12.078,2.962,16.863,7.292A72.161,72.161,0,0,1,26.434,0a92.456,92.456,0,0,1,2.735,33.5,19.238,19.238,0,0,1,11.166-5.469c.228,3.874-2.507,7.292-5.241,9.8-4.33,3.874-9.8,7.292-15.724,6.608C13.9,43.981,9.343,40.107,6.153,35.777Z" transform="translate(445.048 323.588)"/><path class="j" d="M0,15.268a27.225,27.225,0,0,1,18.914,8.659A30.45,30.45,0,0,1,31.9,0a37.968,37.968,0,0,1-6.836,21.421,18.632,18.632,0,0,1,9.343-1.139,8.548,8.548,0,0,1-.228,2.279c-5.241,4.558-11.622,9.115-18.458,7.52-4.785-1.139-8.2-5.241-11.166-9.115C2.962,19.142,1.367,17.091,0,15.268Z" transform="translate(763.851 370.304)"/></g></svg>