<svg xmlns="http://www.w3.org/2000/svg" width="13.473" height="16" viewBox="0 0 13.473 16"><defs><style>.a{fill:#f60;}</style></defs><g transform="translate(-1.264)"><path class="a" d="M11.65,6.173H9.964V5.9a2.23,2.23,0,0,0-.909-3.985A2.594,2.594,0,0,0,4.78.7,2.064,2.064,0,0,0,2.362,1.877q-.065,0-.131,0A2.229,2.229,0,0,0,.782,5.8v9.226A.979.979,0,0,0,1.758,16h7.23a.979.979,0,0,0,.976-.976V13.592H11.65a1.824,1.824,0,0,0,1.822-1.822V8A1.824,1.824,0,0,0,11.65,6.173ZM8.639,5.1H2.927V7.085a.618.618,0,0,1-1.237,0V4.938a.994.994,0,0,1,.9-1.761.618.618,0,0,0,.84-.535.83.83,0,0,1,.827-.772.817.817,0,0,1,.4.1.618.618,0,0,0,.8-.177,1.358,1.358,0,0,1,2.454.731.618.618,0,0,0,.661.586l.071,0a.994.994,0,1,1,0,1.988ZM11.78,11.77a.134.134,0,0,1-.13.13H9.964V7.865H11.65a.134.134,0,0,1,.13.13Z" transform="translate(1.264)"/></g></svg>