<svg xmlns="http://www.w3.org/2000/svg" xmlns:xlink="http://www.w3.org/1999/xlink" width="1289.96" height="271.917" viewBox="0 0 1289.96 271.917"><defs><style>.a,.b{opacity:0.3;}.a{fill:url(#a);}.b{fill:url(#b);}</style><linearGradient id="a" y1="0.501" x2="1" y2="0.501" gradientUnits="objectBoundingBox"><stop offset="0" stop-color="#f9fbf8"/><stop offset="0.808" stop-color="#b7d2ef"/></linearGradient><linearGradient id="b" x1="0" y1="0.5" x2="1" y2="0.5" xlink:href="#a"/></defs><g transform="translate(0 -158)"><path class="a" d="M569.113,32.614c-76.911-6.2-133.637-9.7-83.86-11.256,49.824-1.561,128.012-9.317,76.3-10.5s-111.609,4.3-153.255,2.318c-41.646-1.939,8.178-3.5-44.814-4.257-52.944-.757-81.308-.757-58-3.878S301.035.784,284.017.358c-24.581-.568-35.974-.378-85.136,0S134.544,6.98,158.51,9.3s29.639,4.257-42.876,7.378S-26.89,22.493,10.313,25.993s38.479,2.7,35.312,5.013,5.058,2.7,23.3,2.318c18.294-.378,52.992,2.7,80.078,3.122,27.134.378,55.5,4.257,38.479,6.2s-55.45,6.574-17.018,8.939c38.479,2.318,51.668,5.013,87.027,6.574,35.312,1.561,121.063-3.5,83.86-7.378s-74.406-7.757-20.8-10.074,59.893-3.878,42.875-5.817,18.294-.757,44.814-.378c26.472.378,71.239,4.257,49.163,5.817s-27.749,7.378-8.178,9.317-9.454,5.817,29.639,5.061,79.464,0,111.609-3.074C622.719,48.553,646.072,38.857,569.113,32.614ZM216.324,30.675c-22.36,0-7.847-.757-24.3-2.365-16.4-1.513,15.458-3.453,20.185-3.263C229.276,25.662,238.731,30.675,216.324,30.675Zm23.683,3.311c-11.676-.378-3.5-2.554,1.891-2.365C257.97,32.283,251.636,34.411,240.007,33.986Zm253.471,9.932c-11.629-.189-2.836-4.919,12.622-4.3C524.394,40.418,505.154,44.107,493.478,43.918Zm37.534-1.182c-6,.189-6.334-1.845-1.56-1.75C539.19,41.175,537.016,42.546,531.012,42.736Z" transform="translate(669.21 371.473)"/><path class="b" d="M808.15,29.708c-56.017-2.932-78.14-1.23-124.419-3.405-46.326-2.176-129.288-2.98-166.633-2.98s2.789-6.338-57.388-6.338c-60.13,0-3.451-3.831,9.643-5.155C482.541,10.553,568.245-2.217,428.6.337,359.4,1.614,266.793,6.3,311.039,9.7s77.431,4.257,60.839,9.365c-16.592,5.061-11.062,6.763,15.221,7.662,26.283.8,51.148,3.358-15.221,4.257-66.322.8-27.323-5.77-94.685-2.554-67.457,3.169-63.628,4.682-56.064,7.236,7.611,2.554,13.142,4.682-29.781,5.155-42.781.378-153.4-.047-147.819,3.358,5.484,3.405-14.512,2.98-29.025,3.784-14.56.851-31.152,6.858,21.367,8.135,52.566,1.23,104.423-4.73,119.6,0,15.174,4.635,10.353,8.088,48.359,6.763,38.054-1.277,99.6-2.554,121.678.426,22.123,2.98,46.326,5.959,96.1-.851,49.73-6.858,91.282-16.6,142.43-17.878s118.936,2.98,172.164-.426C789.477,40.775,864.119,32.687,808.15,29.708ZM324.89,45.032c-20.705-1.7-22.832-6.811-6.193-6.811,16.592,0,17.3.8,46.326,1.7C405.11,41.2,345.6,46.687,324.89,45.032Z" transform="translate(0 158)"/></g></svg>