<svg xmlns="http://www.w3.org/2000/svg" width="24.227" height="80" viewBox="0 0 24.227 80"><defs><style>.a{fill:#e75117;}</style></defs><path class="a" d="M-3181.723,498.1c.067-.927.193-35.169,0-40.516a10.2,10.2,0,0,0-4.748-8.119,71.782,71.782,0,0,0-1.317-15.582,13.934,13.934,0,0,1-.7-4.516,1.488,1.488,0,0,0,.911-1.37v-.018a1.485,1.485,0,0,0-.9-1.369c.269-.076.671-.327.756-1.145.087-.839-.19-2.258-1.062-2.641-.159-.07-.49-.215-3.465-.215-.469,0-.969,0-1.489.011s-1.02-.011-1.489-.011c-2.975,0-3.306.145-3.466.215-.871.383-1.148,1.8-1.061,2.641.085.818.488,1.069.756,1.145a1.485,1.485,0,0,0-.9,1.369V428a1.489,1.489,0,0,0,.911,1.371,13.931,13.931,0,0,1-.7,4.516A71.815,71.815,0,0,0-3201,449.466a10.2,10.2,0,0,0-4.748,8.119c-.192,5.346-.066,39.589,0,40.516.005.067,0,.181,0,.3a3.573,3.573,0,0,0,.872,2.775c.934.963,2.559,1.431,4.967,1.431h12.347c2.408,0,4.033-.468,4.967-1.431a3.574,3.574,0,0,0,.872-2.775C-3181.725,498.282-3181.728,498.168-3181.723,498.1Zm-1.148.337a2.467,2.467,0,0,1-.548,1.939c-.7.718-2.089,1.081-4.141,1.081h-12.347c-2.052,0-3.444-.364-4.141-1.081a2.468,2.468,0,0,1-.548-1.939,4.135,4.135,0,0,0,0-.42c-.066-.952-.187-35.141,0-40.391a9.258,9.258,0,0,1,4.458-7.335l.316-.171-.014-.359a70.427,70.427,0,0,1,1.268-15.588c.76-2.911.938-4.547.6-5.471l-.122-.331-.35-.041a.339.339,0,0,1-.3-.335v-.018a.339.339,0,0,1,.261-.329l.151-.036.112-.107a1.314,1.314,0,0,0,.383-1.259,1.051,1.051,0,0,0-.734-.717,2.246,2.246,0,0,1,.054-1.08,1.121,1.121,0,0,1,.286-.569,17.512,17.512,0,0,1,3.009-.122c.465,0,.963,0,1.48.011h.016c.517-.007,1.015-.011,1.48-.011a17.562,17.562,0,0,1,3.008.121,1.116,1.116,0,0,1,.286.569,2.249,2.249,0,0,1,.055,1.081,1.051,1.051,0,0,0-.734.716,1.314,1.314,0,0,0,.383,1.259l.112.107.151.036a.339.339,0,0,1,.261.329V428a.339.339,0,0,1-.3.334l-.35.041-.122.331c-.342.923-.163,2.56.6,5.471a70.427,70.427,0,0,1,1.269,15.588l-.013.357.314.171a9.257,9.257,0,0,1,4.459,7.335c.189,5.252.067,39.44,0,40.391C-3182.88,498.143-3182.876,498.28-3182.871,498.437Z" transform="translate(3205.846 -422.609)"/><path class="a" d="M-3040.542,462.816a5.823,5.823,0,0,1-5.377,2.024.233.233,0,0,0-.123.442,13.322,13.322,0,0,0,5.751.861Z" transform="translate(3057.579 -459.945)"/></svg>