<svg xmlns="http://www.w3.org/2000/svg" width="24.226" height="80" viewBox="0 0 24.226 80"><defs><style>.a{fill:#ffb818;stroke:rgba(0,0,0,0);stroke-miterlimit:10;}.b{fill:#fff;}.c{fill:#e75117;}</style></defs><g transform="translate(-2523.001 12992)"><path class="a" d="M8.688,67.1c-2.051,0-3.444-.364-4.141-1.081A2.469,2.469,0,0,1,4,64.075a4.059,4.059,0,0,0,0-.42c-.065-.939-.184-34.253-.005-40.171H25.729c.179,5.918.059,39.232-.006,40.171-.009.126,0,.262,0,.42a2.466,2.466,0,0,1-.547,1.939c-.7.718-2.09,1.082-4.141,1.082Z" transform="translate(2520.252 -12980.246)"/><path class="b" d="M-3635.276,696.613c-.844,0-.971-11.3-1.014-12.563a41.212,41.212,0,0,1,.067-7.606,8.746,8.746,0,0,1,.832-2.826c.618-1.133,1.674-1.756,2.478-2.695a7.362,7.362,0,0,0,1.1-3.214,42.627,42.627,0,0,0,.57-4.8c.093-1.281.15-2.565.234-3.847q.039-.592.078-1.185a.328.328,0,1,1,.654,0c.156,2.55.339,5.1.245,7.661-.091,2.467-.237,5.372-1.939,7.2a7.343,7.343,0,0,0-1.97,2.476,14.466,14.466,0,0,0-.563,3.579c-.137,2.917-.021,5.853-.123,8.774-.057,1.63-.127,3.259-.182,4.889C-3634.825,693.026-3634.691,696.613-3635.276,696.613Z" transform="translate(6162.402 -13632.754)"/><g transform="translate(2523 -12992)"><path class="c" d="M-3653.826,498.1c.067-.927.193-35.169,0-40.516a10.2,10.2,0,0,0-4.747-8.119,71.813,71.813,0,0,0-1.317-15.582,13.944,13.944,0,0,1-.7-4.516,1.489,1.489,0,0,0,.911-1.37v-.018a1.485,1.485,0,0,0-.9-1.369c.269-.076.671-.327.756-1.145.087-.839-.19-2.258-1.062-2.641-.159-.07-.49-.215-3.465-.215-.469,0-.969,0-1.489.011s-1.021-.011-1.489-.011c-2.975,0-3.306.145-3.466.215-.871.383-1.148,1.8-1.061,2.641.085.818.488,1.069.756,1.145a1.485,1.485,0,0,0-.9,1.369V428a1.489,1.489,0,0,0,.911,1.371,13.924,13.924,0,0,1-.7,4.516,71.815,71.815,0,0,0-1.317,15.582,10.2,10.2,0,0,0-4.748,8.119c-.192,5.346-.066,39.589,0,40.516,0,.067,0,.181,0,.3a3.575,3.575,0,0,0,.872,2.775c.934.963,2.559,1.431,4.967,1.431h12.347c2.408,0,4.033-.468,4.967-1.431a3.574,3.574,0,0,0,.872-2.775C-3653.828,498.282-3653.831,498.168-3653.826,498.1Zm-1.148.337a2.467,2.467,0,0,1-.548,1.939c-.7.718-2.089,1.081-4.141,1.081h-12.347c-2.051,0-3.444-.364-4.14-1.081a2.468,2.468,0,0,1-.548-1.939,4.135,4.135,0,0,0,0-.42c-.066-.952-.187-35.141,0-40.391a9.258,9.258,0,0,1,4.458-7.335l.316-.171-.014-.358a70.44,70.44,0,0,1,1.269-15.588c.76-2.911.938-4.547.6-5.471l-.122-.331-.35-.041a.339.339,0,0,1-.3-.335v-.018a.339.339,0,0,1,.262-.329l.151-.036.112-.107a1.314,1.314,0,0,0,.384-1.259,1.051,1.051,0,0,0-.734-.717,2.244,2.244,0,0,1,.055-1.08,1.121,1.121,0,0,1,.286-.569,17.5,17.5,0,0,1,3.009-.122c.465,0,.963,0,1.48.011h.016c.517-.007,1.015-.011,1.481-.011a17.573,17.573,0,0,1,3.008.121,1.119,1.119,0,0,1,.286.569,2.249,2.249,0,0,1,.055,1.081,1.052,1.052,0,0,0-.734.716,1.314,1.314,0,0,0,.383,1.259l.112.107.151.036a.339.339,0,0,1,.262.329V428a.339.339,0,0,1-.3.334l-.351.041-.122.331c-.342.923-.163,2.56.6,5.471a70.428,70.428,0,0,1,1.269,15.588l-.013.357.314.171a9.256,9.256,0,0,1,4.459,7.335c.189,5.252.067,39.44,0,40.391A4.14,4.14,0,0,0-3654.975,498.437Z" transform="translate(3677.949 -422.609)"/><path class="c" d="M-3512.644,462.816a5.822,5.822,0,0,1-5.377,2.024.233.233,0,0,0-.123.442,13.321,13.321,0,0,0,5.751.861Z" transform="translate(3529.682 -459.945)"/></g></g></svg>