<svg xmlns="http://www.w3.org/2000/svg" width="25" height="25" viewBox="0 0 25 25"><defs><style>.a,.d{fill:none;}.a{stroke:#adaeb6;}.b{fill:#adaeb6;}.c{stroke:none;}</style></defs><g transform="translate(4257 17800)"><g class="a" transform="translate(-4257 -17800)"><circle class="c" cx="12.5" cy="12.5" r="12.5"/><circle class="d" cx="12.5" cy="12.5" r="12"/></g><path class="b" d="M2.686,12H.2V3.989H2.686ZM1.441,2.9A1.448,1.448,0,1,1,2.882,1.442,1.453,1.453,0,0,1,1.441,2.9ZM12,12H9.515V8.1c0-.929-.019-2.121-1.293-2.121-1.293,0-1.492,1.01-1.492,2.054V12H4.244V3.989H6.631V5.082h.035A2.614,2.614,0,0,1,9.019,3.788C11.537,3.788,12,5.446,12,7.6V12Z" transform="translate(-4250 -17794)"/></g></svg>