<svg xmlns="http://www.w3.org/2000/svg" width="18" height="19.115" viewBox="0 0 18 19.115"><defs><style>.a{fill:#adaeb6;}</style></defs><path class="a" d="M18.936,15.495a1.89,1.89,0,0,1-1.434.765c-1.013,0-1.348-.736-1.653-1.51L14.32,10.993l-1.529,3.756c-.248.631-.535,1.51-1.653,1.51s-1.4-.879-1.663-1.51L6.913,8.423h2.16l2.064,5.209,1.539-3.794c.239-.6.526-1.51,1.644-1.51,1.09,0,1.4.908,1.644,1.51l1.673,4.11a6.44,6.44,0,0,0-5.362-9.978A7.531,7.531,0,0,0,5.011,9.206a7.632,7.632,0,0,0,0,4.712,7.635,7.635,0,0,0,9.318,4.941v2.017a9.352,9.352,0,0,1-2.055.239A9.649,9.649,0,0,1,6.636,19.3a9.533,9.533,0,0,1,0-15.483A9.606,9.606,0,0,1,12.275,2a8.392,8.392,0,0,1,6.661,13.495Z" transform="translate(-2.666 -2)"/></svg>