<svg xmlns="http://www.w3.org/2000/svg" width="25" height="25" viewBox="0 0 25 25">
  <g id="Grupo_29300" data-name="Grupo 29300" transform="translate(4192.869 17800)">
    <g id="Grupo_29299" data-name="Grupo 29299" transform="translate(64.131)">
      <g id="Elipse_39" data-name="Elipse 39" transform="translate(-4257 -17800)" fill="none" stroke="#adaeb6" stroke-width="1">
        <circle cx="12.5" cy="12.5" r="12.5" stroke="none"/>
        <circle cx="12.5" cy="12.5" r="12" fill="none"/>
      </g>
    </g>
    <g id="Icon_feather-youtube" data-name="Icon feather-youtube" transform="translate(-4190.369 -17799)">
      <path id="Caminho_10546" data-name="Caminho 10546" d="M17.862,7.838a2.112,2.112,0,0,0-1.474-1.519A54.7,54.7,0,0,0,9.855,6a49.986,49.986,0,0,0-6.533.349A2.112,2.112,0,0,0,1.849,7.869,22.029,22.029,0,0,0,1.5,11.887a22.029,22.029,0,0,0,.349,4.049,2.112,2.112,0,0,0,1.474,1.458,49.986,49.986,0,0,0,6.533.349,49.986,49.986,0,0,0,6.533-.349,2.112,2.112,0,0,0,1.474-1.519,22.029,22.029,0,0,0,.349-3.988,22.029,22.029,0,0,0-.349-4.049Z" fill="none" stroke="#adaeb6" stroke-linecap="round" stroke-linejoin="round" stroke-width="1"/>
      <path id="Caminho_10547" data-name="Caminho 10547" d="M14.625,17.688,18.993,15.2,14.625,12.72Z" transform="translate(-6.479 -3.317)" fill="none" stroke="#adaeb6" stroke-linecap="round" stroke-linejoin="round" stroke-width="1"/>
    </g>
  </g>
</svg>
