<svg xmlns="http://www.w3.org/2000/svg" width="42.111" height="35" viewBox="0 0 42.111 35"><defs><style>.a{fill:none;stroke:#ff6a13;stroke-linecap:round;stroke-linejoin:round;stroke-width:3px;}</style></defs><g transform="translate(0 -3)"><path class="a" d="M40.611,32.944A3.556,3.556,0,0,1,37.056,36.5h-32A3.556,3.556,0,0,1,1.5,32.944V13.389A3.556,3.556,0,0,1,5.056,9.833h7.111L15.722,4.5H26.389l3.556,5.333h7.111a3.556,3.556,0,0,1,3.556,3.556Z"/><path class="a" d="M26.222,20.611A7.111,7.111,0,1,1,19.111,13.5,7.111,7.111,0,0,1,26.222,20.611Z" transform="translate(1.944 1.667)"/></g></svg>