<svg xmlns="http://www.w3.org/2000/svg" width="25" height="25" viewBox="0 0 25 25">
  <g id="Grupo_29297" data-name="Grupo 29297" transform="translate(4289 17800)">
    <g id="Grupo_7097" data-name="Grupo 7097">
      <g id="Elipse_38" data-name="Elipse 38" transform="translate(-4289 -17800)" fill="none" stroke="#adaeb6" stroke-width="1">
        <circle cx="12.5" cy="12.5" r="12.5" stroke="none"/>
        <circle cx="12.5" cy="12.5" r="12" fill="none"/>
      </g>
    </g>
    <path id="Icon_awesome-twitter" data-name="Icon awesome-twitter" d="M13.091,6.334c.009.13.009.259.009.389a8.45,8.45,0,0,1-8.508,8.508A8.45,8.45,0,0,1,0,13.889a6.186,6.186,0,0,0,.722.037,5.989,5.989,0,0,0,3.712-1.278,3,3,0,0,1-2.8-2.074,3.771,3.771,0,0,0,.565.046,3.163,3.163,0,0,0,.787-.1,2.991,2.991,0,0,1-2.4-2.935V7.547a3.012,3.012,0,0,0,1.352.38,2.995,2.995,0,0,1-.926-4A8.5,8.5,0,0,0,7.184,7.056a3.376,3.376,0,0,1-.074-.685,2.993,2.993,0,0,1,5.175-2.046,5.887,5.887,0,0,0,1.9-.722,2.982,2.982,0,0,1-1.315,1.648,6,6,0,0,0,1.722-.463,6.428,6.428,0,0,1-1.5,1.546Z" transform="translate(-4284 -17796.381)" fill="#adaeb6"/>
  </g>
</svg>
