<svg xmlns="http://www.w3.org/2000/svg" width="84.279" height="48" viewBox="0 0 84.279 48"><defs><style>.a{fill:#ffc72c;}</style></defs><g transform="translate(-1680 -211)"><path class="a" d="M5.559,10.22C3.585,12.136,1.348,14.307.214,16.856a2.47,2.47,0,0,0,2.256,3.473h8.581a2.469,2.469,0,1,0,0-4.938H7.357c.539-.557,1.1-1.1,1.642-1.627,2.426-2.355,4.522-4.388,4.522-6.934A6.828,6.828,0,0,0,.4,4.173a2.469,2.469,0,1,0,4.55,1.919,1.89,1.89,0,0,1,3.63.69C8.392,7.471,6.69,9.123,5.559,10.22Z" transform="translate(1715.154 211)"/><path class="a" d="M4.216,9.48,5.261,8.434V15.3H3.535a2.469,2.469,0,1,0,0,4.938h8.39a2.469,2.469,0,1,0,0-4.938H10.2V2.469A2.469,2.469,0,0,0,5.984.724L.722,5.99A2.469,2.469,0,0,0,4.216,9.48Z" transform="translate(1680.106 211.067)"/><path class="a" d="M7.486,0a7.489,7.489,0,0,0,0,14.979A7.489,7.489,0,0,0,7.486,0Z" transform="translate(1749.307 235.209)"/><path class="a" d="M7.486,14.978A7.489,7.489,0,0,0,7.486,0h0a7.489,7.489,0,0,0,0,14.978Z" transform="translate(1714.464 235.21)"/><path class="a" d="M4.658,2.33A2.329,2.329,0,1,0,2.329,4.66,2.33,2.33,0,0,0,4.658,2.33Z" transform="translate(1697.946 240.587)"/><path class="a" d="M4.657,2.33A2.329,2.329,0,1,0,2.329,4.66,2.329,2.329,0,0,0,4.657,2.33Z" transform="translate(1706.918 240.587)"/><path class="a" d="M4.658,2.33A2.329,2.329,0,1,0,2.329,4.66,2.329,2.329,0,0,0,4.658,2.33Z" transform="translate(1732.292 240.587)"/><path class="a" d="M4.658,2.33A2.329,2.329,0,1,0,2.329,4.66,2.329,2.329,0,0,0,4.658,2.33Z" transform="translate(1741.264 240.587)"/><path class="a" d="M14.747,0H2.469a2.469,2.469,0,0,0,0,4.938H14.747a2.469,2.469,0,0,0,0-4.938Z" transform="translate(1713.568 254.062)"/><path class="a" d="M12.719.725,5.877,7.587,4.216,5.925A2.469,2.469,0,0,0,.723,9.416l3.41,3.412a2.468,2.468,0,0,0,1.746.724h0a2.468,2.468,0,0,0,1.747-.725l8.589-8.614a2.469,2.469,0,0,0-3.5-3.487Z" transform="translate(1680 234.803)"/><path class="a" d="M6.483,20.307a6.858,6.858,0,0,0,6.829-6.761,7.453,7.453,0,0,0-1.955-5.327,6.246,6.246,0,0,0-1.176-.946l2.474-3.332A2.469,2.469,0,0,0,10.672,0h-7.4a2.469,2.469,0,0,0,0,4.938H5.764L4.094,7.187a2.469,2.469,0,0,0,1.982,3.941,2.371,2.371,0,0,1,1.74.534,2.557,2.557,0,0,1,.559,1.746,1.946,1.946,0,0,1-1.892,1.961,1.884,1.884,0,0,1-1.739-1.153,2.469,2.469,0,1,0-4.55,1.918,6.81,6.81,0,0,0,6.289,4.173Z" transform="translate(1750.238 211.077)"/></g></svg>