<svg xmlns="http://www.w3.org/2000/svg" width="32.727" height="40" viewBox="0 0 32.727 40"><defs><style>.a{fill:#ff6a13;}</style></defs><path class="a" d="M33.591,3.636h-7.6a5.433,5.433,0,0,0-10.255,0h-7.6A3.647,3.647,0,0,0,4.5,7.273V36.364A3.647,3.647,0,0,0,8.136,40H33.591a3.647,3.647,0,0,0,3.636-3.636V7.273A3.647,3.647,0,0,0,33.591,3.636Zm-12.727,0a1.818,1.818,0,1,1-1.818,1.818A1.824,1.824,0,0,1,20.864,3.636ZM33.591,36.364H8.136V7.273h3.636v5.455H29.955V7.273h3.636Z" transform="translate(-4.5)"/></svg>