<svg xmlns="http://www.w3.org/2000/svg" width="39.273" height="48" viewBox="0 0 39.273 48"><defs><style>.a{fill:#ffc72c;}</style></defs><path class="a" d="M39.409,4.364h-9.12a6.519,6.519,0,0,0-12.305,0H8.864A4.376,4.376,0,0,0,4.5,8.727V43.636A4.376,4.376,0,0,0,8.864,48H39.409a4.376,4.376,0,0,0,4.364-4.364V8.727A4.376,4.376,0,0,0,39.409,4.364Zm-15.273,0a2.182,2.182,0,1,1-2.182,2.182A2.188,2.188,0,0,1,24.136,4.364ZM39.409,43.636H8.864V8.727h4.364v6.545H35.045V8.727h4.364Z" transform="translate(-4.5)"/></svg>