<svg xmlns="http://www.w3.org/2000/svg" width="34.757" height="36" viewBox="0 0 34.757 36"><defs><style>.a{fill:#f60;}</style></defs><g transform="translate(0 0)"><g transform="translate(10.757 12)"><path class="a" d="M17.424,0H7.108A2.741,2.741,0,0,0,4.37,2.731H3.558A3.562,3.562,0,0,0,0,6.289V20.442A3.562,3.562,0,0,0,3.558,24H13.873a3.561,3.561,0,0,0,3.557-3.558V19.63a2.741,2.741,0,0,0,2.731-2.738V2.738A2.741,2.741,0,0,0,17.424,0ZM15.792,8.208V20.442a1.919,1.919,0,0,1-1.919,1.919H3.558a1.919,1.919,0,0,1-1.919-1.919V6.289A1.919,1.919,0,0,1,3.558,4.37H13.873a1.919,1.919,0,0,1,1.919,1.919Zm2.731,8.684a1.1,1.1,0,0,1-1.093,1.1V6.289a3.562,3.562,0,0,0-3.557-3.558H6.009a1.1,1.1,0,0,1,1.1-1.093H17.424a1.1,1.1,0,0,1,1.1,1.1V16.892Z" transform="translate(1.919)"/><path class="a" d="M0,0H9.831V1.639H0Z" transform="translate(5.719 7.459)"/><path class="a" d="M0,0H9.831V1.639H0Z" transform="translate(5.719 10.975)"/><path class="a" d="M0,0H9.831V1.639H0Z" transform="translate(5.719 14.491)"/><path class="a" d="M0,0H9.831V1.639H0Z" transform="translate(5.719 18.007)"/></g><g transform="translate(-1.243)"><path class="a" d="M12.045,1.469a5.029,5.029,0,0,0-7.1,0L.118,6.293a.4.4,0,0,0,0,.568l.967.967a.4.4,0,0,0,.568,0L6.476,3A2.853,2.853,0,0,1,10.51,7.038L3.969,13.579a.862.862,0,0,1-1.22-1.22L9.121,5.988h0a.4.4,0,0,0,0-.568L9.1,5.4l-.949-.949a.4.4,0,0,0-.568,0L1.215,10.824A3.033,3.033,0,1,0,5.5,15.113l6.541-6.541A5.029,5.029,0,0,0,12.045,1.469Z" transform="translate(1.243 0)"/></g></g></svg>