<svg xmlns="http://www.w3.org/2000/svg" width="39.623" height="48" viewBox="0 0 39.623 48"><defs><style>.a{fill:#f60;}</style></defs><g transform="translate(-20)"><path class="a" d="M5.46,19.287a7.748,7.748,0,1,1,7.748,7.748A7.748,7.748,0,0,1,5.46,19.287ZM16.5,27.564H9.921A9.932,9.932,0,0,0,0,37.484v8.043l.021.125.555.173A45.172,45.172,0,0,0,14.064,48c7.291,0,11.517-2.079,11.778-2.211l.518-.263h.055V37.484A9.932,9.932,0,0,0,16.5,27.564ZM26.416,15.5a7.748,7.748,0,1,0-7.748-7.748A7.748,7.748,0,0,0,26.416,15.5Zm3.288.528H23.128c-.157,0-.31.016-.464.024A9.531,9.531,0,0,1,20.64,27.075,11.806,11.806,0,0,1,28.9,36.422,26.554,26.554,0,0,0,39.05,34.25l.518-.263h.055V25.945A9.931,9.931,0,0,0,29.7,16.025Z" transform="translate(20)"/></g></svg>