<svg xmlns="http://www.w3.org/2000/svg" width="81" height="23.611" viewBox="0 0 81 23.611"><defs><style>.a{fill:#ffc72c;}</style></defs><g transform="translate(-30 -16)"><g transform="translate(30 16)"><path class="a" d="M3.749,0A3.748,3.748,0,1,1,0,3.748,3.753,3.753,0,0,1,3.749,0Z" transform="translate(73.503 11.15)"/><path class="a" d="M3.749,0A3.748,3.748,0,1,1,0,3.748,3.753,3.753,0,0,1,3.749,0Z" transform="translate(28.612)"/><path class="a" d="M5.274,13.624H.848A.854.854,0,0,1,0,12.781V.806A.811.811,0,0,1,.848,0H5.274a.794.794,0,0,1,.81.768V12.781A.834.834,0,0,1,5.274,13.624Z" transform="translate(29.31 9.987)"/><path class="a" d="M5.274,0H.848A.854.854,0,0,0,0,.843V22.768a.847.847,0,0,0,.81.843H5.237a.854.854,0,0,0,.848-.843V.843A.847.847,0,0,0,5.274,0Z" transform="translate(19.779)"/><path class="a" d="M4.691,14.167l1.394-2.174V.843A.821.821,0,0,0,5.275,0H.848A.854.854,0,0,0,0,.843V22.768a.834.834,0,0,0,.81.843H5.256a.854.854,0,0,0,.848-.843V18.2l-1.375-2.08A1.673,1.673,0,0,1,4.691,14.167Z" transform="translate(57.284)"/><path class="a" d="M12.086,16,6.831,8.845,11.672,1.33a1.145,1.145,0,0,0,.32-.693c0-.356-.207-.637-.735-.637H6.492A1.175,1.175,0,0,0,5.305.487L.784,7.4l-.622.956a.756.756,0,0,0,0,.937l.622.937,4.37,6.6a1.216,1.216,0,0,0,1.187.487h5.331c.527,0,.735-.281.735-.637A1.149,1.149,0,0,0,12.086,16Z" transform="translate(62.604 6.278)"/><path class="a" d="M9.532,5.641h.113a3.762,3.762,0,0,1,2.6,1.049,4.111,4.111,0,0,0,.433.394,1.292,1.292,0,0,0,1.093.375,1.215,1.215,0,0,0,.527-.337l2.3-2.867a.961.961,0,0,0,.3-.937,1.465,1.465,0,0,0-.32-.487A6.151,6.151,0,0,0,15.315,1.78,10.8,10.8,0,0,0,9.287,0,8.963,8.963,0,0,0,0,9.107v.038a8.968,8.968,0,0,0,9.306,9.107,10.891,10.891,0,0,0,6.028-1.78A6.249,6.249,0,0,0,16.6,15.422a1.054,1.054,0,0,0,.32-.487,1.006,1.006,0,0,0-.3-.937L14.3,11.131a1.116,1.116,0,0,0-.527-.337,1.272,1.272,0,0,0-1.093.375c-.132.112-.3.262-.433.394a3.68,3.68,0,0,1-2.6,1.049H9.532a3.486,3.486,0,0,1,0-6.971Z" transform="translate(0 5.359)"/><path class="a" d="M14.316,11.131a1.115,1.115,0,0,0-.527-.337,1.272,1.272,0,0,0-1.093.375c-.132.112-.3.262-.433.394a3.68,3.68,0,0,1-2.6,1.049H9.551a3.486,3.486,0,0,1,0-6.971h.113a3.762,3.762,0,0,1,2.6,1.049,4.121,4.121,0,0,0,.433.394,1.292,1.292,0,0,0,1.093.375,1.066,1.066,0,0,0,.527-.337l2.3-2.867a.962.962,0,0,0,.3-.937,1.465,1.465,0,0,0-.32-.487A6.149,6.149,0,0,0,15.334,1.78,10.8,10.8,0,0,0,9.306,0,8.979,8.979,0,0,0,0,9.107v.038a8.968,8.968,0,0,0,9.306,9.107,10.891,10.891,0,0,0,6.028-1.78A6.815,6.815,0,0,0,16.6,15.422a1.054,1.054,0,0,0,.32-.487,1.006,1.006,0,0,0-.3-.937Z" transform="translate(37.975 5.359)"/></g></g></svg>