<svg xmlns="http://www.w3.org/2000/svg" width="83" height="29.106" viewBox="0 0 83 29.106"><defs><style>.a{fill:#adaeb6;}</style></defs><g transform="translate(-96 -836)"><g transform="translate(96 836)"><g transform="translate(0 8.936)"><path class="a" d="M62.029,4.394c-3.967,0-7.058,3.524-7.182,7.866-.213,7.49,9.781,10.078,13.06,5.953V15.037s-1.039,1.8-5.08,1.8-4.179-3-4.179-3H69.066a8.649,8.649,0,0,0,.145-1.577C69.211,7.916,66,4.394,62.029,4.394ZM58.6,11.168a3.608,3.608,0,0,1,7.077,0ZM10.331,6.619A5.547,5.547,0,0,0,6.186,4.632C2.77,4.632,0,8.086,0,12.347s2.77,7.716,6.186,7.716a5.547,5.547,0,0,0,4.144-1.987v1.9H14.3V4.719H10.331v1.9ZM7.368,16.65c-1.749,0-3.166-1.894-3.166-4.23s1.417-4.23,3.166-4.23,3.167,1.894,3.167,4.23S9.117,16.65,7.368,16.65Zm29.5,1.559V10.393h0v-2.2a3.879,3.879,0,0,0-3.992-3.586c-3.732,0-4.542,2.082-4.542,2.082a4.387,4.387,0,0,0-3.927-2.266A4.944,4.944,0,0,0,20.444,6.26V4.632h-3.9V19.924h3.9V9.945a2.6,2.6,0,0,1,2.308-1.837,2.1,2.1,0,0,1,2.088,2.01v8.059a2.955,2.955,0,0,0,1.137,1.748h3.9a3.008,3.008,0,0,1-1.137-1.714V10.682h0a2.355,2.355,0,0,1,2.2-2.545c1.681-.084,1.988,1.45,2.031,2.3v.456c0,.053-.006.083-.006.083h.006v7.206a2.953,2.953,0,0,0,1.137,1.748H38A3.012,3.012,0,0,1,36.864,18.209ZM47.646,4.632A5.547,5.547,0,0,0,43.5,6.619V0H39.533V19.976H43.5v-1.9a5.547,5.547,0,0,0,4.144,1.987c3.416,0,6.186-3.454,6.186-7.716S51.062,4.632,47.646,4.632ZM46.464,16.65c-1.749,0-3.167-1.894-3.167-4.23s1.418-4.23,3.167-4.23,3.166,1.894,3.166,4.23S48.213,16.65,46.464,16.65Zm32.039-12L75.625,15.415,72.741,4.653H68.129l5.106,15.3h4.376L83,4.653Z"/></g><g transform="translate(16.971)"><path class="a" d="M4.262,3.209c-.007-.021-.016-.049-.025-.069a2.314,2.314,0,0,1-1.071.7A1.484,1.484,0,0,1,2.049,3.83a1.568,1.568,0,0,1-.741-1,1.564,1.564,0,0,1,.033-1.263A1.4,1.4,0,0,1,2.18.951,3.619,3.619,0,0,1,3.214.8l-.3-.8L2.774,0A3.427,3.427,0,0,0,1.729.163,2.282,2.282,0,0,0,.144,3.221,2.563,2.563,0,0,0,1.221,4.689a2.2,2.2,0,0,0,1.849.152,1.72,1.72,0,0,0,1.121-.86,1.125,1.125,0,0,0,.072-.767Z" transform="translate(0 3.331)"/><path class="a" d="M2.025,4.266l-.245-.993.014,0L3.55,2.837l-.216-.876L1.563,2.4l-.24-.973.014,0L3.543.876,3.326,0,0,.821,1.133,5.416,4.454,4.6,4.3,3.706Z" transform="translate(5.229 1.772)"/><path class="a" d="M4.035,3.274A2.308,2.308,0,0,0,2.99,2.508L2.938,2.5l.05-.018A1.228,1.228,0,0,0,3.8,1.072,1.223,1.223,0,0,0,3.265.233,2.023,2.023,0,0,0,1.8.053L0,.371.824,5.031l1.123-.2L1.28,1.061,1.77.975c.525-.093.831.081.908.518.124.7-.588.944-.877,1.029a3.176,3.176,0,0,1,.924.967,6.61,6.61,0,0,0,.5.622,1.079,1.079,0,0,0,1.094.359,1.485,1.485,0,0,0,.866-.432,1.232,1.232,0,0,1-.817-.43C4.254,3.5,4.143,3.386,4.035,3.274Z" transform="translate(10.775 0.959)"/><path class="a" d="M0,.485,1.918,5.036l1.527-.169L4.391,0,3.184.133,2.635,4,1.314.34Z" transform="translate(16.085 0.084)"/><path class="a" d="M1.189,3.859,1.176,2.836,3,2.813l-.011-.9-1.823.023-.013-1h.015L3.437.9,3.426,0,0,.044.06,4.776l3.481-.043-.013-.9Z" transform="translate(22.271)"/><path class="a" d="M.565,3.944A1.6,1.6,0,0,1,0,3.8a.984.984,0,0,0,.213.669A1.012,1.012,0,0,0,.975,4.8a1.178,1.178,0,0,0,.858-.268A1.665,1.665,0,0,0,2.25,3.321L2.379.044,1.239,0,1.107,3.358C1.1,3.658,1.022,3.962.565,3.944Z" transform="translate(27.325 0.109)"/><path class="a" d="M1.934,0,0,4.549l1.119.124.347-.9h.011l1.452.161.134.953,1.221.135L3.468.17Zm.853,3.012L1.807,2.9l.737-1.89.262,2Z" transform="translate(30.857 0.479)"/><path class="a" d="M3.816,4.556c-.068-.137-.132-.284-.193-.427a2.316,2.316,0,0,0-.713-1.083l-.045-.028h.074A1.225,1.225,0,0,0,4.174,1.984a1.224,1.224,0,0,0-.212-.974A2.027,2.027,0,0,0,2.652.33L.854,0,0,4.655l1.122.206.691-3.767.49.09c.524.1.75.366.67.8-.129.7-.88.68-1.181.659a3.175,3.175,0,0,1,.529,1.229,6.509,6.509,0,0,0,.248.755,1.08,1.08,0,0,0,.9.718,1.484,1.484,0,0,0,.963-.1A1.232,1.232,0,0,1,3.816,4.556Z" transform="translate(36.717 1.15)"/><path class="a" d="M1.108,4.866,2.22.268,1.112,0,0,4.6Z" transform="translate(42.374 2.382)"/><path class="a" d="M1.073,4.425l.513-.815.011,0,1.393.439-.053.96,1.171.368L4.245.463,2.774,0,0,4.087ZM2.1,2.806,3.176,1.111,3.047,3.124l-.957-.3Z" transform="translate(44.812 3.556)"/></g></g></g></svg>