<svg xmlns="http://www.w3.org/2000/svg" width="19" height="19.011" viewBox="0 0 19 19.011"><defs><style>.a{fill:none;stroke:#adaeb6;}</style></defs><g transform="translate(-1.875 -3.519)"><path class="a" d="M20.374,13.94a.939.939,0,0,1,.128-.473,1.306,1.306,0,0,1,.081-.12,6.28,6.28,0,0,0,1.07-3.5,6.593,6.593,0,0,0-6.732-6.472,6.686,6.686,0,0,0-6.6,5.151,6.228,6.228,0,0,0-.143,1.325A6.574,6.574,0,0,0,14.8,16.405a7.982,7.982,0,0,0,1.829-.3c.438-.12.872-.279.984-.322a1.025,1.025,0,0,1,.36-.066,1.008,1.008,0,0,1,.391.078l2.2.779a.524.524,0,0,0,.151.039.308.308,0,0,0,.31-.31.5.5,0,0,0-.019-.1Z" transform="translate(-1.278 0.644)"/><path class="a" d="M14.859,21.776c-.153.042-.348.089-.56.136a7.836,7.836,0,0,1-1.444.191A7.2,7.2,0,0,1,5.6,14.923a8.027,8.027,0,0,1,.064-.909c.025-.183.055-.365.1-.543s.093-.382.149-.569l-.34.3a6.318,6.318,0,0,0-2.191,4.751,6.248,6.248,0,0,0,1.053,3.481c.1.149.153.263.136.34s-.505,2.632-.505,2.632a.341.341,0,0,0,.115.327.346.346,0,0,0,.217.076.3.3,0,0,0,.123-.025l2.382-.938a.663.663,0,0,1,.242-.047.67.67,0,0,1,.267.055,7.146,7.146,0,0,0,2.577.509,6.668,6.668,0,0,0,5.1-2.339s.136-.187.293-.408C15.216,21.674,15.038,21.729,14.859,21.776Z" transform="translate(-1 -2.781)"/></g></svg>