<svg xmlns="http://www.w3.org/2000/svg" width="21.633" height="28.044" viewBox="0 0 21.633 28.044">
  <g id="Grupo_29246" data-name="Grupo 29246" transform="translate(8.111 28.134) rotate(-150)">
    <g id="União_3" data-name="União 3" transform="translate(0 0)" fill="none">
      <path d="M.032,22.351v-2.1c-.071-.7,0-1.541,0-2.314V6.013A1.722,1.722,0,0,1,.571,4.767a1.026,1.026,0,0,1,.135-.221L3.943.481a1,1,0,0,1,1.564,0L8.744,4.546a1.008,1.008,0,0,1,.176.33,1.319,1.319,0,0,1,.5,1.137V17.937c0,.542.019,1.143-.006,1.715q.005.113.006.228v2.471a4.694,4.694,0,1,1-9.387,0Z" stroke="none"/>
      <path d="M 4.724997520446777 24.54500007629395 C 5.934497356414795 24.54500007629395 6.918497562408447 23.56060028076172 6.918497562408447 22.35059928894043 L 6.918497562408447 19.88010025024414 C 6.918497562408447 19.84486961364746 6.91760778427124 19.80835914611816 6.915847778320312 19.77159881591797 L 6.910397529602051 19.65764999389648 L 6.91535758972168 19.54368019104004 C 6.929857730865479 19.20998954772949 6.925927639007568 18.8301887512207 6.922127723693848 18.46290016174316 C 6.92027759552002 18.28368949890137 6.918497562408447 18.10756874084473 6.918497562408447 17.9370002746582 L 6.918497562408447 6.49875545501709 L 6.771347522735596 6.388139724731445 L 6.615942478179932 5.886316299438477 L 4.724997997283936 3.512257814407349 L 2.777062654495239 5.957882404327393 L 2.666157484054565 6.206619739532471 L 2.531497478485107 6.341453075408936 L 2.531497478485107 17.9370002746582 C 2.531497478485107 18.23163986206055 2.522967576980591 18.52010917663574 2.514717578887939 18.79907035827637 C 2.501677513122559 19.23979949951172 2.488207578659058 19.69552040100098 2.518897533416748 20.00007057189941 L 2.531497478485107 20.12509918212891 L 2.531497478485107 22.35059928894043 C 2.531497478485107 23.56060028076172 3.51549768447876 24.54500007629395 4.724997520446777 24.54500007629395 M 4.724997520446777 27.04500007629395 C 2.132997512817383 27.04500007629395 0.03149757906794548 24.94350051879883 0.03149757906794548 22.35059928894043 L 0.03149757906794548 20.25075912475586 C -0.03904242068529129 19.55084991455078 0.03149757906794548 18.7096004486084 0.03149757906794548 17.9370002746582 L 0.03149757906794548 6.012899875640869 C 0.03149757906794548 5.513739585876465 0.2367575764656067 5.101349830627441 0.5708975791931152 4.766769886016846 C 0.6048775911331177 4.690559864044189 0.6494975686073303 4.616439819335938 0.7055975794792175 4.545899868011475 L 3.94289755821228 0.4814996719360352 C 4.34339714050293 -0.02160030603408813 5.106597423553467 -0.02160030603408813 5.507097721099854 0.4814996719360352 L 8.744397163391113 4.545899868011475 C 8.826967239379883 4.649719715118408 8.88471794128418 4.761419773101807 8.920157432556152 4.87585973739624 C 9.23117733001709 5.109659671783447 9.418498039245605 5.467249870300293 9.418498039245605 6.012899875640869 L 9.418498039245605 17.9370002746582 C 9.418498039245605 18.47906875610352 9.437857627868652 19.08022880554199 9.412997245788574 19.65222930908203 C 9.416607856750488 19.72774887084961 9.418498039245605 19.80368995666504 9.418498039245605 19.88010025024414 L 9.418498039245605 22.35059928894043 C 9.418498039245605 24.94350051879883 7.316997528076172 27.04500007629395 4.724997520446777 27.04500007629395 Z" stroke="none" fill="#707070"/>
    </g>
    <g id="Retângulo_18442" data-name="Retângulo 18442" transform="translate(0.032 5.659)" fill="#707070" stroke="#707070" stroke-width="1">
      <rect width="9.141" height="1.128" stroke="none"/>
      <rect x="0.5" y="0.5" width="8.141" height="0.128" fill="none"/>
    </g>
    <g id="Retângulo_18443" data-name="Retângulo 18443" transform="translate(0.032 19.633)" fill="#707070" stroke="#707070" stroke-width="1">
      <rect width="9.141" height="1.923" stroke="none"/>
      <rect x="0.5" y="0.5" width="8.141" height="0.923" fill="none"/>
    </g>
  </g>
</svg>
