<svg xmlns="http://www.w3.org/2000/svg" xmlns:xlink="http://www.w3.org/1999/xlink" width="52.334" height="60" viewBox="0 0 52.334 60"><defs><style>.a{fill:#b5b5b6;opacity:0.17;mix-blend-mode:multiply;isolation:isolate;}.b{fill:url(#a);}.c{fill:url(#b);}.d{fill:url(#c);}</style><linearGradient id="a" x1="0.103" y1="0.598" x2="1.028" y2="0.342" gradientUnits="objectBoundingBox"><stop offset="0" stop-color="#dcdcdc"/><stop offset="1" stop-color="#54565a"/></linearGradient><linearGradient id="b" x1="0.5" y1="1" x2="0.5" gradientUnits="objectBoundingBox"><stop offset="0" stop-color="#f9f9f9"/><stop offset="1" stop-color="#54565a"/></linearGradient><linearGradient id="c" x1="0.5" y1="1" x2="0.5" gradientUnits="objectBoundingBox"><stop offset="0" stop-color="#adaeb6"/><stop offset="1" stop-color="#f9f9f9"/></linearGradient></defs><g transform="translate(-2110.636 -2076.888)"><path class="a" d="M7.486.119,8.654.054,8.981.038h0l.21-.009h.033L9.411.021h.017l.2-.006h0L9.851.009h0c8.415-.181,20.211,2.279,22.777,4.862l1.49,5.911c.019.216-2.305.344-3.542.216h-.01c-.079-.008-.153-.018-.222-.028L4.914,6.3h0C-2.96,3.929-.835.648,7.486.119Zm4.474,1.8C9.3,2.254,8.4,3.177,10.1,4.138c1.826.971,6.071,1.638,9.9,1.611H19.82c3.013-.344,3.676-1.255,1.475-2.2A26.758,26.758,0,0,0,11.96,1.923Zm.979-.09-.07,0Zm-.152.01L12.7,1.85Zm-.148.011-.106.009Zm-.143.012-.116.011Zm-.139.013-.123.012Zm-.135.014-.127.014Zm-.132.015-.129.015Zm8.716,3.826.115,0Zm.215-.008.084,0Zm-1.01.024.177,0Zm.194,0,.166,0Zm.2,0,.152,0Zm.2,0,.136,0Z" transform="matrix(0.978, -0.208, 0.208, 0.978, 2110.636, 2126.079)"/><g transform="translate(2126.493 2076.888)"><path class="b" d="M2155.889,2076.895q-.242-.007-.485-.007t-.484.007c-12.545.337-20.682,14.167-15.574,26.3l14.792,26.005c.574,1.01,3.222,1.01,3.8,0l14.792-26.005C2177.835,2091.061,2168.433,2077.231,2155.889,2076.895Zm-2.227,27.427a9.379,9.379,0,1,1,8.844-9.364A9.115,9.115,0,0,1,2153.661,2104.321Z" transform="translate(-2137.798 -2076.888)"/><path class="c" d="M2583.993,2076.895c-.161,0-1.587-.007-1.748-.007s-.324,0-.484.007q-.638.017-1.259.081c11.822,1.191,19.25,14.5,14.315,26.221l-13.856,24.36a1.643,1.643,0,0,0,0,1.615l.017.031c.575,1.01,3.222,1.01,3.8,0l14.792-26.005C2604.676,2091.061,2596.538,2077.231,2583.993,2076.895Z" transform="translate(-2564.638 -2076.888)"/><path class="d" d="M2342.514,2338.552a8.414,8.414,0,0,0,1.664-.166,9.481,9.481,0,0,1,0-18.4,8.414,8.414,0,0,0-1.664-.166,9.379,9.379,0,0,0,0,18.728Z" transform="translate(-2326.65 -2311.119)"/></g></g></svg>