<svg xmlns="http://www.w3.org/2000/svg" xmlns:xlink="http://www.w3.org/1999/xlink" width="77.558" height="88.919" viewBox="0 0 77.558 88.919"><defs><style>.a{fill:#b5b5b6;opacity:0.17;mix-blend-mode:multiply;isolation:isolate;}.b{fill:url(#a);}.c{fill:url(#b);}.d{fill:url(#c);}</style><linearGradient id="a" x1="0.103" y1="0.598" x2="1.028" y2="0.342" gradientUnits="objectBoundingBox"><stop offset="0" stop-color="#d15a07"/><stop offset="0.131" stop-color="#e0731a"/><stop offset="0.277" stop-color="#ec8729"/><stop offset="0.443" stop-color="#f49533"/><stop offset="0.647" stop-color="#f99d3a"/><stop offset="1" stop-color="#fba03c"/></linearGradient><linearGradient id="b" x1="0.5" y1="1" x2="0.5" gradientUnits="objectBoundingBox"><stop offset="0" stop-color="#fba03c"/><stop offset="0.214" stop-color="#f69835"/><stop offset="0.546" stop-color="#e98225"/><stop offset="0.953" stop-color="#d35e0a"/><stop offset="1" stop-color="#d15a07"/></linearGradient><linearGradient id="c" x1="0.5" y1="1" x2="0.5" gradientUnits="objectBoundingBox"><stop offset="0" stop-color="#fba03c"/><stop offset="0.219" stop-color="#f89b38"/><stop offset="0.478" stop-color="#ef8c2d"/><stop offset="0.758" stop-color="#e1741b"/><stop offset="1" stop-color="#d15a07"/></linearGradient></defs><g transform="translate(-736.001 -405.948)"><g transform="translate(-1374.636 -1670.939)"><path class="a" d="M11.095.177c.158-.01,1.57-.088,1.731-.1l.484-.024h0l.311-.013.048,0,.275-.01h.025l.3-.009h0L14.6.014h0C27.071-.254,44.553,3.391,48.355,7.22l2.209,8.76c.029.32-3.416.51-5.249.32l-.015,0c-.117-.012-.227-.026-.329-.042L7.282,9.33h0C-4.387,5.822-1.238.96,11.095.177Zm6.63,2.673c-3.939.491-5.277,1.859-2.751,3.283,2.707,1.44,9,2.427,14.673,2.387h-.274c4.465-.51,5.448-1.861,2.185-3.254C28.435,3.867,22.608,2.873,17.725,2.85Zm1.451-.133-.1.007Zm-.226.015-.136.01Zm-.219.016-.157.013Zm-.212.018-.171.016Zm-.206.019-.182.018Zm-.2.02-.188.021Zm-.2.022-.192.023ZM30.834,8.5,31,8.491Zm.319-.012.125-.005Zm-1.5.035.262,0Zm.287,0,.246,0Zm.291,0,.226,0Zm.3-.007.2-.005Z" transform="matrix(0.978, -0.208, 0.208, 0.978, 2110.636, 2149.789)"/><g transform="translate(2134.136 2076.888)"><path class="b" d="M2164.608,2076.9q-.358-.01-.718-.01t-.718.01c-18.591.5-30.65,21-23.081,38.979l21.922,38.54c.851,1.5,4.775,1.5,5.626,0l21.922-38.54C2197.132,2097.893,2183.2,2077.4,2164.608,2076.9Zm-3.3,40.646c-7.239,0-13.108-6.213-13.108-13.877s5.869-13.877,13.108-13.877,13.107,6.213,13.107,13.877S2168.546,2117.544,2161.307,2117.544Z" transform="translate(-2137.798 -2076.888)"/><path class="c" d="M2585.676,2076.9c-.239-.006-2.351-.01-2.591-.01s-.479,0-.718.01q-.944.026-1.865.12c17.52,1.765,28.529,21.484,21.215,38.86l-20.535,36.1a2.437,2.437,0,0,0,0,2.393l.026.045c.852,1.5,4.775,1.5,5.626,0l21.922-38.54C2616.327,2097.893,2604.268,2077.4,2585.676,2076.9Z" transform="translate(-2556.992 -2076.888)"/><path class="d" d="M2346.777,2347.579a12.457,12.457,0,0,0,2.466-.246,14.051,14.051,0,0,1,0-27.262,12.457,12.457,0,0,0-2.466-.246c-7.239,0-13.108,6.213-13.108,13.877S2339.537,2347.579,2346.777,2347.579Z" transform="translate(-2323.267 -2306.923)"/></g></g></g></svg>