<svg xmlns="http://www.w3.org/2000/svg" width="15" height="16.542" viewBox="0 0 15 16.542">
  <path id="Icon_simple-email" data-name="Icon simple-email" d="M16.66,7.635a8.531,8.531,0,0,1-.275,1.85,5.354,5.354,0,0,1-.719,1.625,3.8,3.8,0,0,1-1.22,1.155,3.442,3.442,0,0,1-1.781.439,2.582,2.582,0,0,1-1.288-.315,2.206,2.206,0,0,1-.87-.892,2.759,2.759,0,0,1-2.334,1.172,2.373,2.373,0,0,1-2.037-1.1A3.587,3.587,0,0,1,5.629,10.3a5.474,5.474,0,0,1-.066-1.656,7.692,7.692,0,0,1,.5-2.028A5.512,5.512,0,0,1,7,5.066a3.944,3.944,0,0,1,1.282-.99A3.576,3.576,0,0,1,9.84,3.729a4.847,4.847,0,0,1,.932.08,3.816,3.816,0,0,1,.724.217,3.913,3.913,0,0,1,.6.316c.183.118.367.24.55.364l-.453,5.21a1.732,1.732,0,0,0,.013.61.853.853,0,0,0,.186.376.67.67,0,0,0,.3.2,1.12,1.12,0,0,0,1.061-.209,2.26,2.26,0,0,0,.569-.724,4.66,4.66,0,0,0,.382-1.087,7.461,7.461,0,0,0,.167-1.354,8.653,8.653,0,0,0-.213-2.53,5.03,5.03,0,0,0-.936-1.958,4.349,4.349,0,0,0-1.679-1.261A6.093,6.093,0,0,0,9.6,1.528a5.4,5.4,0,0,0-2.419.527A5.55,5.55,0,0,0,5.342,3.516a7.014,7.014,0,0,0-1.2,2.2,9.908,9.908,0,0,0-.506,2.739,9.109,9.109,0,0,0,.258,2.795,5.048,5.048,0,0,0,1.021,2,4.262,4.262,0,0,0,1.73,1.2,6.637,6.637,0,0,0,2.388.4,8.178,8.178,0,0,0,1.567-.168c.258-.052.5-.114.737-.182a5.547,5.547,0,0,0,.635-.227l.328,1.474a3.637,3.637,0,0,1-.71.351,6.836,6.836,0,0,1-.839.243,8.19,8.19,0,0,1-1.753.2,9.193,9.193,0,0,1-3.2-.515,5.882,5.882,0,0,1-2.33-1.532,6.433,6.433,0,0,1-1.4-2.529,10.789,10.789,0,0,1-.391-3.511,10.709,10.709,0,0,1,.672-3.37A8.34,8.34,0,0,1,3.97,2.407,7.376,7.376,0,0,1,6.439.641,7.731,7.731,0,0,1,9.637,0a8.072,8.072,0,0,1,3.1.555,6.027,6.027,0,0,1,2.237,1.561A6.405,6.405,0,0,1,16.3,4.527,9.221,9.221,0,0,1,16.66,7.635ZM7.783,8.648a3.516,3.516,0,0,0,.182,1.744.935.935,0,0,0,.9.589.993.993,0,0,0,.308-.057,1.1,1.1,0,0,0,.355-.213,1.892,1.892,0,0,0,.36-.434,3.332,3.332,0,0,0,.331-.734l.354-4.048a2.112,2.112,0,0,0-.55-.072,1.9,1.9,0,0,0-.915.21,1.811,1.811,0,0,0-.648.616,3.618,3.618,0,0,0-.43,1.013,8.593,8.593,0,0,0-.244,1.385Z" transform="translate(-1.67)" fill="#dcdcdc"/>
</svg>
