<svg xmlns="http://www.w3.org/2000/svg" width="34.757" height="36" viewBox="0 0 34.757 36"><defs><style>.a{fill:#f60;}</style></defs><g transform="translate(0 0)"><g transform="translate(10.757 12)"><path class="a" d="M7.358,14.449c0,.564-.4.79-.882.5L.882,12.172A2,2,0,0,1,0,10.624V4.453A2,2,0,0,1,.882,2.905L6.476.125c.485-.287.882-.061.882.5Z" transform="translate(4.76 4.462)"/><path class="a" d="M3.466,7.229A1.028,1.028,0,0,1,2.441,8.255H1.025A1.028,1.028,0,0,1,0,7.229v-6.2A1.028,1.028,0,0,1,1.025,0H2.441A1.028,1.028,0,0,1,3.466,1.025Z" transform="translate(0 7.873)"/><path class="a" d="M1.8,11.61A8.624,8.624,0,0,0,3.939,6.027,8.628,8.628,0,0,0,1.948.4C1.913.36,1.876.32,1.839.283,1.515-.042,1.19-.089.948.152L.2.9a.559.559,0,0,0,.034.873l.049.056a6.428,6.428,0,0,1-.049,8.246L.215,10.1a.546.546,0,0,0-.035.827l.785.785a.552.552,0,0,0,.4.2.6.6,0,0,0,.408-.262Z" transform="translate(14.799 6.048)"/><path class="a" d="M5.477,9.84A13.857,13.857,0,0,0,2.016.508L1.968.453C1.917.394,1.859.326,1.793.26c-.3-.3-.564-.341-.784-.121L.18.968c-.359.359.033.808.244,1.049l.04.046a11.709,11.709,0,0,1-.2,15.487c-.123.136-.451.5-.113.834l.875.875a.405.405,0,0,0,.3.131.737.737,0,0,0,.481-.282A13.854,13.854,0,0,0,5.477,9.84Z" transform="translate(18.522 2.304)"/></g><g transform="translate(-1.243)"><path class="a" d="M12.045,1.469a5.029,5.029,0,0,0-7.1,0L.118,6.293a.4.4,0,0,0,0,.568l.967.967a.4.4,0,0,0,.568,0L6.476,3A2.853,2.853,0,0,1,10.51,7.038L3.969,13.579a.862.862,0,0,1-1.22-1.22L9.121,5.988h0a.4.4,0,0,0,0-.568L9.1,5.4l-.949-.949a.4.4,0,0,0-.568,0L1.215,10.824A3.033,3.033,0,1,0,5.5,15.113l6.541-6.541A5.029,5.029,0,0,0,12.045,1.469Z" transform="translate(1.243 0)"/></g></g></svg>